%TF.GenerationSoftware,KiCad,Pcbnew,9.0.0*%
%TF.CreationDate,2025-03-11T18:36:24-04:00*%
%TF.ProjectId,pnp_controller,706e705f-636f-46e7-9472-6f6c6c65722e,rev?*%
%TF.SameCoordinates,Original*%
%TF.FileFunction,Legend,Top*%
%TF.FilePolarity,Positive*%
%FSLAX46Y46*%
G04 Gerber Fmt 4.6, Leading zero omitted, Abs format (unit mm)*
G04 Created by KiCad (PCBNEW 9.0.0) date 2025-03-11 18:36:24*
%MOMM*%
%LPD*%
G01*
G04 APERTURE LIST*
%ADD10C,0.100000*%
%ADD11C,0.400000*%
%ADD12C,0.150000*%
%ADD13C,0.120000*%
%ADD14C,0.127000*%
G04 APERTURE END LIST*
D10*
X148180074Y16327580D02*
X147703884Y16327580D01*
X147703884Y16327580D02*
X147703884Y17327580D01*
X148513408Y16327580D02*
X148513408Y17327580D01*
X148989598Y16327580D02*
X148989598Y17327580D01*
X148989598Y17327580D02*
X149322931Y16613295D01*
X149322931Y16613295D02*
X149656264Y17327580D01*
X149656264Y17327580D02*
X149656264Y16327580D01*
X150799122Y17327580D02*
X151465788Y16327580D01*
X151465788Y17327580D02*
X150799122Y16327580D01*
X151799122Y17232342D02*
X151846741Y17279961D01*
X151846741Y17279961D02*
X151941979Y17327580D01*
X151941979Y17327580D02*
X152180074Y17327580D01*
X152180074Y17327580D02*
X152275312Y17279961D01*
X152275312Y17279961D02*
X152322931Y17232342D01*
X152322931Y17232342D02*
X152370550Y17137104D01*
X152370550Y17137104D02*
X152370550Y17041866D01*
X152370550Y17041866D02*
X152322931Y16899009D01*
X152322931Y16899009D02*
X151751503Y16327580D01*
X151751503Y16327580D02*
X152370550Y16327580D01*
X148580074Y29127580D02*
X148103884Y29127580D01*
X148103884Y29127580D02*
X148103884Y30127580D01*
X148913408Y29127580D02*
X148913408Y30127580D01*
X149389598Y29127580D02*
X149389598Y30127580D01*
X149389598Y30127580D02*
X149722931Y29413295D01*
X149722931Y29413295D02*
X150056264Y30127580D01*
X150056264Y30127580D02*
X150056264Y29127580D01*
X151199122Y30127580D02*
X151865788Y29127580D01*
X151865788Y30127580D02*
X151199122Y29127580D01*
X152770550Y29127580D02*
X152199122Y29127580D01*
X152484836Y29127580D02*
X152484836Y30127580D01*
X152484836Y30127580D02*
X152389598Y29984723D01*
X152389598Y29984723D02*
X152294360Y29889485D01*
X152294360Y29889485D02*
X152199122Y29841866D01*
X134580074Y28927580D02*
X134103884Y28927580D01*
X134103884Y28927580D02*
X134103884Y29927580D01*
X134913408Y28927580D02*
X134913408Y29927580D01*
X135389598Y28927580D02*
X135389598Y29927580D01*
X135389598Y29927580D02*
X135722931Y29213295D01*
X135722931Y29213295D02*
X136056264Y29927580D01*
X136056264Y29927580D02*
X136056264Y28927580D01*
X137484836Y29403771D02*
X137484836Y28927580D01*
X137151503Y29927580D02*
X137484836Y29403771D01*
X137484836Y29403771D02*
X137818169Y29927580D01*
X138151503Y29308533D02*
X138913408Y29308533D01*
X138532455Y28927580D02*
X138532455Y29689485D01*
X131030074Y16377580D02*
X130553884Y16377580D01*
X130553884Y16377580D02*
X130553884Y17377580D01*
X131363408Y16377580D02*
X131363408Y17377580D01*
X131839598Y16377580D02*
X131839598Y17377580D01*
X131839598Y17377580D02*
X132172931Y16663295D01*
X132172931Y16663295D02*
X132506264Y17377580D01*
X132506264Y17377580D02*
X132506264Y16377580D01*
X133601503Y17377580D02*
X134172931Y17377580D01*
X133887217Y16377580D02*
X133887217Y17377580D01*
X135268170Y16377580D02*
X135268170Y17377580D01*
X135268170Y16901390D02*
X135839598Y16901390D01*
X135839598Y16377580D02*
X135839598Y17377580D01*
X136506265Y17377580D02*
X136696741Y17377580D01*
X136696741Y17377580D02*
X136791979Y17329961D01*
X136791979Y17329961D02*
X136887217Y17234723D01*
X136887217Y17234723D02*
X136934836Y17044247D01*
X136934836Y17044247D02*
X136934836Y16710914D01*
X136934836Y16710914D02*
X136887217Y16520438D01*
X136887217Y16520438D02*
X136791979Y16425200D01*
X136791979Y16425200D02*
X136696741Y16377580D01*
X136696741Y16377580D02*
X136506265Y16377580D01*
X136506265Y16377580D02*
X136411027Y16425200D01*
X136411027Y16425200D02*
X136315789Y16520438D01*
X136315789Y16520438D02*
X136268170Y16710914D01*
X136268170Y16710914D02*
X136268170Y17044247D01*
X136268170Y17044247D02*
X136315789Y17234723D01*
X136315789Y17234723D02*
X136411027Y17329961D01*
X136411027Y17329961D02*
X136506265Y17377580D01*
X137363408Y16377580D02*
X137363408Y17377580D01*
X137363408Y17377580D02*
X137696741Y16663295D01*
X137696741Y16663295D02*
X138030074Y17377580D01*
X138030074Y17377580D02*
X138030074Y16377580D01*
X138506265Y16901390D02*
X138839598Y16901390D01*
X138982455Y16377580D02*
X138506265Y16377580D01*
X138506265Y16377580D02*
X138506265Y17377580D01*
X138506265Y17377580D02*
X138982455Y17377580D01*
X134530074Y3877580D02*
X134053884Y3877580D01*
X134053884Y3877580D02*
X134053884Y4877580D01*
X134863408Y3877580D02*
X134863408Y4877580D01*
X135339598Y3877580D02*
X135339598Y4877580D01*
X135339598Y4877580D02*
X135672931Y4163295D01*
X135672931Y4163295D02*
X136006264Y4877580D01*
X136006264Y4877580D02*
X136006264Y3877580D01*
X137149122Y4877580D02*
X137815788Y3877580D01*
X137815788Y4877580D02*
X137149122Y3877580D01*
X138196741Y4258533D02*
X138958646Y4258533D01*
X111030074Y3877580D02*
X110553884Y3877580D01*
X110553884Y3877580D02*
X110553884Y4877580D01*
X111363408Y3877580D02*
X111363408Y4877580D01*
X111839598Y3877580D02*
X111839598Y4877580D01*
X111839598Y4877580D02*
X112172931Y4163295D01*
X112172931Y4163295D02*
X112506264Y4877580D01*
X112506264Y4877580D02*
X112506264Y3877580D01*
X113934836Y4353771D02*
X113934836Y3877580D01*
X113601503Y4877580D02*
X113934836Y4353771D01*
X113934836Y4353771D02*
X114268169Y4877580D01*
X115363408Y3877580D02*
X115363408Y4877580D01*
X115363408Y4401390D02*
X115934836Y4401390D01*
X115934836Y3877580D02*
X115934836Y4877580D01*
X116601503Y4877580D02*
X116791979Y4877580D01*
X116791979Y4877580D02*
X116887217Y4829961D01*
X116887217Y4829961D02*
X116982455Y4734723D01*
X116982455Y4734723D02*
X117030074Y4544247D01*
X117030074Y4544247D02*
X117030074Y4210914D01*
X117030074Y4210914D02*
X116982455Y4020438D01*
X116982455Y4020438D02*
X116887217Y3925200D01*
X116887217Y3925200D02*
X116791979Y3877580D01*
X116791979Y3877580D02*
X116601503Y3877580D01*
X116601503Y3877580D02*
X116506265Y3925200D01*
X116506265Y3925200D02*
X116411027Y4020438D01*
X116411027Y4020438D02*
X116363408Y4210914D01*
X116363408Y4210914D02*
X116363408Y4544247D01*
X116363408Y4544247D02*
X116411027Y4734723D01*
X116411027Y4734723D02*
X116506265Y4829961D01*
X116506265Y4829961D02*
X116601503Y4877580D01*
X117458646Y3877580D02*
X117458646Y4877580D01*
X117458646Y4877580D02*
X117791979Y4163295D01*
X117791979Y4163295D02*
X118125312Y4877580D01*
X118125312Y4877580D02*
X118125312Y3877580D01*
X118601503Y4401390D02*
X118934836Y4401390D01*
X119077693Y3877580D02*
X118601503Y3877580D01*
X118601503Y3877580D02*
X118601503Y4877580D01*
X118601503Y4877580D02*
X119077693Y4877580D01*
X114530074Y16377580D02*
X114053884Y16377580D01*
X114053884Y16377580D02*
X114053884Y17377580D01*
X114863408Y16377580D02*
X114863408Y17377580D01*
X115339598Y16377580D02*
X115339598Y17377580D01*
X115339598Y17377580D02*
X115672931Y16663295D01*
X115672931Y16663295D02*
X116006264Y17377580D01*
X116006264Y17377580D02*
X116006264Y16377580D01*
X117149122Y17377580D02*
X117815788Y17377580D01*
X117815788Y17377580D02*
X117149122Y16377580D01*
X117149122Y16377580D02*
X117815788Y16377580D01*
X118196741Y16758533D02*
X118958646Y16758533D01*
X114780074Y28877580D02*
X114303884Y28877580D01*
X114303884Y28877580D02*
X114303884Y29877580D01*
X115113408Y28877580D02*
X115113408Y29877580D01*
X115589598Y28877580D02*
X115589598Y29877580D01*
X115589598Y29877580D02*
X115922931Y29163295D01*
X115922931Y29163295D02*
X116256264Y29877580D01*
X116256264Y29877580D02*
X116256264Y28877580D01*
X117399122Y29877580D02*
X118065788Y29877580D01*
X118065788Y29877580D02*
X117399122Y28877580D01*
X117399122Y28877580D02*
X118065788Y28877580D01*
X118446741Y29258533D02*
X119208646Y29258533D01*
X118827693Y28877580D02*
X118827693Y29639485D01*
D11*
X64637942Y-84941728D02*
X64637942Y-86941728D01*
X64637942Y-86941728D02*
X61637942Y-84941728D01*
X61637942Y-84941728D02*
X61637942Y-86941728D01*
X64780800Y-90227442D02*
X60923657Y-87656014D01*
X64637942Y-90798871D02*
X64637942Y-92513157D01*
X61637942Y-91656014D02*
X64637942Y-91656014D01*
X61780800Y-95656013D02*
X61637942Y-96084585D01*
X61637942Y-96084585D02*
X61637942Y-96798870D01*
X61637942Y-96798870D02*
X61780800Y-97084585D01*
X61780800Y-97084585D02*
X61923657Y-97227442D01*
X61923657Y-97227442D02*
X62209371Y-97370299D01*
X62209371Y-97370299D02*
X62495085Y-97370299D01*
X62495085Y-97370299D02*
X62780800Y-97227442D01*
X62780800Y-97227442D02*
X62923657Y-97084585D01*
X62923657Y-97084585D02*
X63066514Y-96798870D01*
X63066514Y-96798870D02*
X63209371Y-96227442D01*
X63209371Y-96227442D02*
X63352228Y-95941727D01*
X63352228Y-95941727D02*
X63495085Y-95798870D01*
X63495085Y-95798870D02*
X63780800Y-95656013D01*
X63780800Y-95656013D02*
X64066514Y-95656013D01*
X64066514Y-95656013D02*
X64352228Y-95798870D01*
X64352228Y-95798870D02*
X64495085Y-95941727D01*
X64495085Y-95941727D02*
X64637942Y-96227442D01*
X64637942Y-96227442D02*
X64637942Y-96941727D01*
X64637942Y-96941727D02*
X64495085Y-97370299D01*
X64637942Y-98227442D02*
X64637942Y-99941728D01*
X61637942Y-99084585D02*
X64637942Y-99084585D01*
X63209371Y-100941727D02*
X63209371Y-101941727D01*
X61637942Y-102370299D02*
X61637942Y-100941727D01*
X61637942Y-100941727D02*
X64637942Y-100941727D01*
X64637942Y-100941727D02*
X64637942Y-102370299D01*
X61637942Y-103656013D02*
X64637942Y-103656013D01*
X64637942Y-103656013D02*
X64637942Y-104798870D01*
X64637942Y-104798870D02*
X64495085Y-105084585D01*
X64495085Y-105084585D02*
X64352228Y-105227442D01*
X64352228Y-105227442D02*
X64066514Y-105370299D01*
X64066514Y-105370299D02*
X63637942Y-105370299D01*
X63637942Y-105370299D02*
X63352228Y-105227442D01*
X63352228Y-105227442D02*
X63209371Y-105084585D01*
X63209371Y-105084585D02*
X63066514Y-104798870D01*
X63066514Y-104798870D02*
X63066514Y-103656013D01*
X61637942Y-106656013D02*
X64637942Y-106656013D01*
X64637942Y-106656013D02*
X64637942Y-107798870D01*
X64637942Y-107798870D02*
X64495085Y-108084585D01*
X64495085Y-108084585D02*
X64352228Y-108227442D01*
X64352228Y-108227442D02*
X64066514Y-108370299D01*
X64066514Y-108370299D02*
X63637942Y-108370299D01*
X63637942Y-108370299D02*
X63352228Y-108227442D01*
X63352228Y-108227442D02*
X63209371Y-108084585D01*
X63209371Y-108084585D02*
X63066514Y-107798870D01*
X63066514Y-107798870D02*
X63066514Y-106656013D01*
X63209371Y-109656013D02*
X63209371Y-110656013D01*
X61637942Y-111084585D02*
X61637942Y-109656013D01*
X61637942Y-109656013D02*
X64637942Y-109656013D01*
X64637942Y-109656013D02*
X64637942Y-111084585D01*
X61637942Y-114084585D02*
X63066514Y-113084585D01*
X61637942Y-112370299D02*
X64637942Y-112370299D01*
X64637942Y-112370299D02*
X64637942Y-113513156D01*
X64637942Y-113513156D02*
X64495085Y-113798871D01*
X64495085Y-113798871D02*
X64352228Y-113941728D01*
X64352228Y-113941728D02*
X64066514Y-114084585D01*
X64066514Y-114084585D02*
X63637942Y-114084585D01*
X63637942Y-114084585D02*
X63352228Y-113941728D01*
X63352228Y-113941728D02*
X63209371Y-113798871D01*
X63209371Y-113798871D02*
X63066514Y-113513156D01*
X63066514Y-113513156D02*
X63066514Y-112370299D01*
X61780800Y-115227442D02*
X61637942Y-115656014D01*
X61637942Y-115656014D02*
X61637942Y-116370299D01*
X61637942Y-116370299D02*
X61780800Y-116656014D01*
X61780800Y-116656014D02*
X61923657Y-116798871D01*
X61923657Y-116798871D02*
X62209371Y-116941728D01*
X62209371Y-116941728D02*
X62495085Y-116941728D01*
X62495085Y-116941728D02*
X62780800Y-116798871D01*
X62780800Y-116798871D02*
X62923657Y-116656014D01*
X62923657Y-116656014D02*
X63066514Y-116370299D01*
X63066514Y-116370299D02*
X63209371Y-115798871D01*
X63209371Y-115798871D02*
X63352228Y-115513156D01*
X63352228Y-115513156D02*
X63495085Y-115370299D01*
X63495085Y-115370299D02*
X63780800Y-115227442D01*
X63780800Y-115227442D02*
X64066514Y-115227442D01*
X64066514Y-115227442D02*
X64352228Y-115370299D01*
X64352228Y-115370299D02*
X64495085Y-115513156D01*
X64495085Y-115513156D02*
X64637942Y-115798871D01*
X64637942Y-115798871D02*
X64637942Y-116513156D01*
X64637942Y-116513156D02*
X64495085Y-116941728D01*
X64137942Y-14441728D02*
X61137942Y-16441728D01*
X64137942Y-16441728D02*
X61137942Y-14441728D01*
X64280800Y-19727442D02*
X60423657Y-17156014D01*
X62566514Y-21298871D02*
X61137942Y-21298871D01*
X64137942Y-20298871D02*
X62566514Y-21298871D01*
X62566514Y-21298871D02*
X64137942Y-22298871D01*
X61280800Y-25441728D02*
X61137942Y-25870300D01*
X61137942Y-25870300D02*
X61137942Y-26584585D01*
X61137942Y-26584585D02*
X61280800Y-26870300D01*
X61280800Y-26870300D02*
X61423657Y-27013157D01*
X61423657Y-27013157D02*
X61709371Y-27156014D01*
X61709371Y-27156014D02*
X61995085Y-27156014D01*
X61995085Y-27156014D02*
X62280800Y-27013157D01*
X62280800Y-27013157D02*
X62423657Y-26870300D01*
X62423657Y-26870300D02*
X62566514Y-26584585D01*
X62566514Y-26584585D02*
X62709371Y-26013157D01*
X62709371Y-26013157D02*
X62852228Y-25727442D01*
X62852228Y-25727442D02*
X62995085Y-25584585D01*
X62995085Y-25584585D02*
X63280800Y-25441728D01*
X63280800Y-25441728D02*
X63566514Y-25441728D01*
X63566514Y-25441728D02*
X63852228Y-25584585D01*
X63852228Y-25584585D02*
X63995085Y-25727442D01*
X63995085Y-25727442D02*
X64137942Y-26013157D01*
X64137942Y-26013157D02*
X64137942Y-26727442D01*
X64137942Y-26727442D02*
X63995085Y-27156014D01*
X64137942Y-28013157D02*
X64137942Y-29727443D01*
X61137942Y-28870300D02*
X64137942Y-28870300D01*
X62709371Y-30727442D02*
X62709371Y-31727442D01*
X61137942Y-32156014D02*
X61137942Y-30727442D01*
X61137942Y-30727442D02*
X64137942Y-30727442D01*
X64137942Y-30727442D02*
X64137942Y-32156014D01*
X61137942Y-33441728D02*
X64137942Y-33441728D01*
X64137942Y-33441728D02*
X64137942Y-34584585D01*
X64137942Y-34584585D02*
X63995085Y-34870300D01*
X63995085Y-34870300D02*
X63852228Y-35013157D01*
X63852228Y-35013157D02*
X63566514Y-35156014D01*
X63566514Y-35156014D02*
X63137942Y-35156014D01*
X63137942Y-35156014D02*
X62852228Y-35013157D01*
X62852228Y-35013157D02*
X62709371Y-34870300D01*
X62709371Y-34870300D02*
X62566514Y-34584585D01*
X62566514Y-34584585D02*
X62566514Y-33441728D01*
X61137942Y-36441728D02*
X64137942Y-36441728D01*
X64137942Y-36441728D02*
X64137942Y-37584585D01*
X64137942Y-37584585D02*
X63995085Y-37870300D01*
X63995085Y-37870300D02*
X63852228Y-38013157D01*
X63852228Y-38013157D02*
X63566514Y-38156014D01*
X63566514Y-38156014D02*
X63137942Y-38156014D01*
X63137942Y-38156014D02*
X62852228Y-38013157D01*
X62852228Y-38013157D02*
X62709371Y-37870300D01*
X62709371Y-37870300D02*
X62566514Y-37584585D01*
X62566514Y-37584585D02*
X62566514Y-36441728D01*
X62709371Y-39441728D02*
X62709371Y-40441728D01*
X61137942Y-40870300D02*
X61137942Y-39441728D01*
X61137942Y-39441728D02*
X64137942Y-39441728D01*
X64137942Y-39441728D02*
X64137942Y-40870300D01*
X61137942Y-43870300D02*
X62566514Y-42870300D01*
X61137942Y-42156014D02*
X64137942Y-42156014D01*
X64137942Y-42156014D02*
X64137942Y-43298871D01*
X64137942Y-43298871D02*
X63995085Y-43584586D01*
X63995085Y-43584586D02*
X63852228Y-43727443D01*
X63852228Y-43727443D02*
X63566514Y-43870300D01*
X63566514Y-43870300D02*
X63137942Y-43870300D01*
X63137942Y-43870300D02*
X62852228Y-43727443D01*
X62852228Y-43727443D02*
X62709371Y-43584586D01*
X62709371Y-43584586D02*
X62566514Y-43298871D01*
X62566514Y-43298871D02*
X62566514Y-42156014D01*
X61280800Y-45013157D02*
X61137942Y-45441729D01*
X61137942Y-45441729D02*
X61137942Y-46156014D01*
X61137942Y-46156014D02*
X61280800Y-46441729D01*
X61280800Y-46441729D02*
X61423657Y-46584586D01*
X61423657Y-46584586D02*
X61709371Y-46727443D01*
X61709371Y-46727443D02*
X61995085Y-46727443D01*
X61995085Y-46727443D02*
X62280800Y-46584586D01*
X62280800Y-46584586D02*
X62423657Y-46441729D01*
X62423657Y-46441729D02*
X62566514Y-46156014D01*
X62566514Y-46156014D02*
X62709371Y-45584586D01*
X62709371Y-45584586D02*
X62852228Y-45298871D01*
X62852228Y-45298871D02*
X62995085Y-45156014D01*
X62995085Y-45156014D02*
X63280800Y-45013157D01*
X63280800Y-45013157D02*
X63566514Y-45013157D01*
X63566514Y-45013157D02*
X63852228Y-45156014D01*
X63852228Y-45156014D02*
X63995085Y-45298871D01*
X63995085Y-45298871D02*
X64137942Y-45584586D01*
X64137942Y-45584586D02*
X64137942Y-46298871D01*
X64137942Y-46298871D02*
X63995085Y-46727443D01*
X83637942Y43201128D02*
X83637942Y44915414D01*
X83637942Y44058271D02*
X86637942Y44058271D01*
X86637942Y44058271D02*
X86209371Y44343985D01*
X86209371Y44343985D02*
X85923657Y44629700D01*
X85923657Y44629700D02*
X85780800Y44915414D01*
X86352228Y42058271D02*
X86495085Y41915414D01*
X86495085Y41915414D02*
X86637942Y41629700D01*
X86637942Y41629700D02*
X86637942Y40915414D01*
X86637942Y40915414D02*
X86495085Y40629700D01*
X86495085Y40629700D02*
X86352228Y40486842D01*
X86352228Y40486842D02*
X86066514Y40343985D01*
X86066514Y40343985D02*
X85780800Y40343985D01*
X85780800Y40343985D02*
X85352228Y40486842D01*
X85352228Y40486842D02*
X83637942Y42201128D01*
X83637942Y42201128D02*
X83637942Y40343985D01*
X86637942Y39486842D02*
X83637942Y38486842D01*
X83637942Y38486842D02*
X86637942Y37486842D01*
X126280800Y44915414D02*
X126137942Y44486843D01*
X126137942Y44486843D02*
X126137942Y43772557D01*
X126137942Y43772557D02*
X126280800Y43486843D01*
X126280800Y43486843D02*
X126423657Y43343985D01*
X126423657Y43343985D02*
X126709371Y43201128D01*
X126709371Y43201128D02*
X126995085Y43201128D01*
X126995085Y43201128D02*
X127280800Y43343985D01*
X127280800Y43343985D02*
X127423657Y43486843D01*
X127423657Y43486843D02*
X127566514Y43772557D01*
X127566514Y43772557D02*
X127709371Y44343985D01*
X127709371Y44343985D02*
X127852228Y44629700D01*
X127852228Y44629700D02*
X127995085Y44772557D01*
X127995085Y44772557D02*
X128280800Y44915414D01*
X128280800Y44915414D02*
X128566514Y44915414D01*
X128566514Y44915414D02*
X128852228Y44772557D01*
X128852228Y44772557D02*
X128995085Y44629700D01*
X128995085Y44629700D02*
X129137942Y44343985D01*
X129137942Y44343985D02*
X129137942Y43629700D01*
X129137942Y43629700D02*
X128995085Y43201128D01*
X129137942Y41343985D02*
X129137942Y40772557D01*
X129137942Y40772557D02*
X128995085Y40486842D01*
X128995085Y40486842D02*
X128709371Y40201128D01*
X128709371Y40201128D02*
X128137942Y40058271D01*
X128137942Y40058271D02*
X127137942Y40058271D01*
X127137942Y40058271D02*
X126566514Y40201128D01*
X126566514Y40201128D02*
X126280800Y40486842D01*
X126280800Y40486842D02*
X126137942Y40772557D01*
X126137942Y40772557D02*
X126137942Y41343985D01*
X126137942Y41343985D02*
X126280800Y41629700D01*
X126280800Y41629700D02*
X126566514Y41915414D01*
X126566514Y41915414D02*
X127137942Y42058271D01*
X127137942Y42058271D02*
X128137942Y42058271D01*
X128137942Y42058271D02*
X128709371Y41915414D01*
X128709371Y41915414D02*
X128995085Y41629700D01*
X128995085Y41629700D02*
X129137942Y41343985D01*
X126137942Y37343985D02*
X126137942Y38772557D01*
X126137942Y38772557D02*
X129137942Y38772557D01*
X150102228Y45665414D02*
X150245085Y45522557D01*
X150245085Y45522557D02*
X150387942Y45236843D01*
X150387942Y45236843D02*
X150387942Y44522557D01*
X150387942Y44522557D02*
X150245085Y44236843D01*
X150245085Y44236843D02*
X150102228Y44093985D01*
X150102228Y44093985D02*
X149816514Y43951128D01*
X149816514Y43951128D02*
X149530800Y43951128D01*
X149530800Y43951128D02*
X149102228Y44093985D01*
X149102228Y44093985D02*
X147387942Y45808271D01*
X147387942Y45808271D02*
X147387942Y43951128D01*
X149387942Y41379700D02*
X147387942Y41379700D01*
X150530800Y42093985D02*
X148387942Y42808271D01*
X148387942Y42808271D02*
X148387942Y40951128D01*
X150387942Y40236842D02*
X147387942Y39236842D01*
X147387942Y39236842D02*
X150387942Y38236842D01*
X78477442Y50030800D02*
X80763157Y50030800D01*
X79620299Y48887942D02*
X79620299Y51173657D01*
X73727442Y50030800D02*
X76013157Y50030800D01*
X73727442Y50030800D02*
X76013157Y50030800D01*
X78477442Y50030800D02*
X80763157Y50030800D01*
X79620299Y48887942D02*
X79620299Y51173657D01*
X121727442Y50030800D02*
X124013157Y50030800D01*
X122870299Y48887942D02*
X122870299Y51173657D01*
X116977442Y50030800D02*
X119263157Y50030800D01*
X137477442Y49530800D02*
X139763157Y49530800D01*
X142227442Y49530800D02*
X144513157Y49530800D01*
X143370299Y48387942D02*
X143370299Y50673657D01*
X154691728Y34387942D02*
X156691728Y31387942D01*
X156691728Y34387942D02*
X154691728Y31387942D01*
X154548871Y-19612057D02*
X156263157Y-19612057D01*
X155406014Y-22612057D02*
X155406014Y-19612057D01*
X154891728Y-2612057D02*
X156891728Y-2612057D01*
X156891728Y-2612057D02*
X154891728Y-5612057D01*
X154891728Y-5612057D02*
X156891728Y-5612057D01*
X155548871Y14816514D02*
X155548871Y13387942D01*
X154548871Y16387942D02*
X155548871Y14816514D01*
X155548871Y14816514D02*
X156548871Y16387942D01*
D10*
X160224800Y-40543734D02*
X160272419Y-40400877D01*
X160272419Y-40400877D02*
X160272419Y-40162782D01*
X160272419Y-40162782D02*
X160224800Y-40067544D01*
X160224800Y-40067544D02*
X160177180Y-40019925D01*
X160177180Y-40019925D02*
X160081942Y-39972306D01*
X160081942Y-39972306D02*
X159986704Y-39972306D01*
X159986704Y-39972306D02*
X159891466Y-40019925D01*
X159891466Y-40019925D02*
X159843847Y-40067544D01*
X159843847Y-40067544D02*
X159796228Y-40162782D01*
X159796228Y-40162782D02*
X159748609Y-40353258D01*
X159748609Y-40353258D02*
X159700990Y-40448496D01*
X159700990Y-40448496D02*
X159653371Y-40496115D01*
X159653371Y-40496115D02*
X159558133Y-40543734D01*
X159558133Y-40543734D02*
X159462895Y-40543734D01*
X159462895Y-40543734D02*
X159367657Y-40496115D01*
X159367657Y-40496115D02*
X159320038Y-40448496D01*
X159320038Y-40448496D02*
X159272419Y-40353258D01*
X159272419Y-40353258D02*
X159272419Y-40115163D01*
X159272419Y-40115163D02*
X159320038Y-39972306D01*
X160272419Y-39543734D02*
X159272419Y-39543734D01*
X159272419Y-39543734D02*
X159272419Y-39162782D01*
X159272419Y-39162782D02*
X159320038Y-39067544D01*
X159320038Y-39067544D02*
X159367657Y-39019925D01*
X159367657Y-39019925D02*
X159462895Y-38972306D01*
X159462895Y-38972306D02*
X159605752Y-38972306D01*
X159605752Y-38972306D02*
X159700990Y-39019925D01*
X159700990Y-39019925D02*
X159748609Y-39067544D01*
X159748609Y-39067544D02*
X159796228Y-39162782D01*
X159796228Y-39162782D02*
X159796228Y-39543734D01*
X159986704Y-38591353D02*
X159986704Y-38115163D01*
X160272419Y-38686591D02*
X159272419Y-38353258D01*
X159272419Y-38353258D02*
X160272419Y-38019925D01*
X160272419Y-37115163D02*
X159796228Y-37448496D01*
X160272419Y-37686591D02*
X159272419Y-37686591D01*
X159272419Y-37686591D02*
X159272419Y-37305639D01*
X159272419Y-37305639D02*
X159320038Y-37210401D01*
X159320038Y-37210401D02*
X159367657Y-37162782D01*
X159367657Y-37162782D02*
X159462895Y-37115163D01*
X159462895Y-37115163D02*
X159605752Y-37115163D01*
X159605752Y-37115163D02*
X159700990Y-37162782D01*
X159700990Y-37162782D02*
X159748609Y-37210401D01*
X159748609Y-37210401D02*
X159796228Y-37305639D01*
X159796228Y-37305639D02*
X159796228Y-37686591D01*
X159748609Y-36686591D02*
X159748609Y-36353258D01*
X160272419Y-36210401D02*
X160272419Y-36686591D01*
X160272419Y-36686591D02*
X159272419Y-36686591D01*
X159272419Y-36686591D02*
X159272419Y-36210401D01*
X160224800Y-35829448D02*
X160272419Y-35686591D01*
X160272419Y-35686591D02*
X160272419Y-35448496D01*
X160272419Y-35448496D02*
X160224800Y-35353258D01*
X160224800Y-35353258D02*
X160177180Y-35305639D01*
X160177180Y-35305639D02*
X160081942Y-35258020D01*
X160081942Y-35258020D02*
X159986704Y-35258020D01*
X159986704Y-35258020D02*
X159891466Y-35305639D01*
X159891466Y-35305639D02*
X159843847Y-35353258D01*
X159843847Y-35353258D02*
X159796228Y-35448496D01*
X159796228Y-35448496D02*
X159748609Y-35638972D01*
X159748609Y-35638972D02*
X159700990Y-35734210D01*
X159700990Y-35734210D02*
X159653371Y-35781829D01*
X159653371Y-35781829D02*
X159558133Y-35829448D01*
X159558133Y-35829448D02*
X159462895Y-35829448D01*
X159462895Y-35829448D02*
X159367657Y-35781829D01*
X159367657Y-35781829D02*
X159320038Y-35734210D01*
X159320038Y-35734210D02*
X159272419Y-35638972D01*
X159272419Y-35638972D02*
X159272419Y-35400877D01*
X159272419Y-35400877D02*
X159320038Y-35258020D01*
X154961027Y-29472419D02*
X155294360Y-30472419D01*
X155294360Y-30472419D02*
X155627693Y-29472419D01*
X155913408Y-30186704D02*
X156389598Y-30186704D01*
X155818170Y-30472419D02*
X156151503Y-29472419D01*
X156151503Y-29472419D02*
X156484836Y-30472419D01*
X157389598Y-30377180D02*
X157341979Y-30424800D01*
X157341979Y-30424800D02*
X157199122Y-30472419D01*
X157199122Y-30472419D02*
X157103884Y-30472419D01*
X157103884Y-30472419D02*
X156961027Y-30424800D01*
X156961027Y-30424800D02*
X156865789Y-30329561D01*
X156865789Y-30329561D02*
X156818170Y-30234323D01*
X156818170Y-30234323D02*
X156770551Y-30043847D01*
X156770551Y-30043847D02*
X156770551Y-29900990D01*
X156770551Y-29900990D02*
X156818170Y-29710514D01*
X156818170Y-29710514D02*
X156865789Y-29615276D01*
X156865789Y-29615276D02*
X156961027Y-29520038D01*
X156961027Y-29520038D02*
X157103884Y-29472419D01*
X157103884Y-29472419D02*
X157199122Y-29472419D01*
X157199122Y-29472419D02*
X157341979Y-29520038D01*
X157341979Y-29520038D02*
X157389598Y-29567657D01*
X157818170Y-29472419D02*
X157818170Y-30281942D01*
X157818170Y-30281942D02*
X157865789Y-30377180D01*
X157865789Y-30377180D02*
X157913408Y-30424800D01*
X157913408Y-30424800D02*
X158008646Y-30472419D01*
X158008646Y-30472419D02*
X158199122Y-30472419D01*
X158199122Y-30472419D02*
X158294360Y-30424800D01*
X158294360Y-30424800D02*
X158341979Y-30377180D01*
X158341979Y-30377180D02*
X158389598Y-30281942D01*
X158389598Y-30281942D02*
X158389598Y-29472419D01*
X158865789Y-29472419D02*
X158865789Y-30281942D01*
X158865789Y-30281942D02*
X158913408Y-30377180D01*
X158913408Y-30377180D02*
X158961027Y-30424800D01*
X158961027Y-30424800D02*
X159056265Y-30472419D01*
X159056265Y-30472419D02*
X159246741Y-30472419D01*
X159246741Y-30472419D02*
X159341979Y-30424800D01*
X159341979Y-30424800D02*
X159389598Y-30377180D01*
X159389598Y-30377180D02*
X159437217Y-30281942D01*
X159437217Y-30281942D02*
X159437217Y-29472419D01*
X159913408Y-30472419D02*
X159913408Y-29472419D01*
X159913408Y-29472419D02*
X160246741Y-30186704D01*
X160246741Y-30186704D02*
X160580074Y-29472419D01*
X160580074Y-29472419D02*
X160580074Y-30472419D01*
X158837217Y-14948609D02*
X158503884Y-14948609D01*
X158503884Y-15472419D02*
X158503884Y-14472419D01*
X158503884Y-14472419D02*
X158980074Y-14472419D01*
X159837217Y-15472419D02*
X159361027Y-15472419D01*
X159361027Y-15472419D02*
X159361027Y-14472419D01*
X160027694Y-14472419D02*
X160599122Y-14472419D01*
X160313408Y-15472419D02*
X160313408Y-14472419D01*
X159075312Y-20377180D02*
X159027693Y-20424800D01*
X159027693Y-20424800D02*
X158884836Y-20472419D01*
X158884836Y-20472419D02*
X158789598Y-20472419D01*
X158789598Y-20472419D02*
X158646741Y-20424800D01*
X158646741Y-20424800D02*
X158551503Y-20329561D01*
X158551503Y-20329561D02*
X158503884Y-20234323D01*
X158503884Y-20234323D02*
X158456265Y-20043847D01*
X158456265Y-20043847D02*
X158456265Y-19900990D01*
X158456265Y-19900990D02*
X158503884Y-19710514D01*
X158503884Y-19710514D02*
X158551503Y-19615276D01*
X158551503Y-19615276D02*
X158646741Y-19520038D01*
X158646741Y-19520038D02*
X158789598Y-19472419D01*
X158789598Y-19472419D02*
X158884836Y-19472419D01*
X158884836Y-19472419D02*
X159027693Y-19520038D01*
X159027693Y-19520038D02*
X159075312Y-19567657D01*
X159980074Y-20472419D02*
X159503884Y-20472419D01*
X159503884Y-20472419D02*
X159503884Y-19472419D01*
X160313408Y-20472419D02*
X160313408Y-19472419D01*
X160884836Y-20472419D02*
X160456265Y-19900990D01*
X160884836Y-19472419D02*
X160313408Y-20043847D01*
X158503884Y-22472419D02*
X158503884Y-21472419D01*
X158503884Y-21472419D02*
X158741979Y-21472419D01*
X158741979Y-21472419D02*
X158884836Y-21520038D01*
X158884836Y-21520038D02*
X158980074Y-21615276D01*
X158980074Y-21615276D02*
X159027693Y-21710514D01*
X159027693Y-21710514D02*
X159075312Y-21900990D01*
X159075312Y-21900990D02*
X159075312Y-22043847D01*
X159075312Y-22043847D02*
X159027693Y-22234323D01*
X159027693Y-22234323D02*
X158980074Y-22329561D01*
X158980074Y-22329561D02*
X158884836Y-22424800D01*
X158884836Y-22424800D02*
X158741979Y-22472419D01*
X158741979Y-22472419D02*
X158503884Y-22472419D01*
X159503884Y-22472419D02*
X159503884Y-21472419D01*
X160551502Y-22472419D02*
X160218169Y-21996228D01*
X159980074Y-22472419D02*
X159980074Y-21472419D01*
X159980074Y-21472419D02*
X160361026Y-21472419D01*
X160361026Y-21472419D02*
X160456264Y-21520038D01*
X160456264Y-21520038D02*
X160503883Y-21567657D01*
X160503883Y-21567657D02*
X160551502Y-21662895D01*
X160551502Y-21662895D02*
X160551502Y-21805752D01*
X160551502Y-21805752D02*
X160503883Y-21900990D01*
X160503883Y-21900990D02*
X160456264Y-21948609D01*
X160456264Y-21948609D02*
X160361026Y-21996228D01*
X160361026Y-21996228D02*
X159980074Y-21996228D01*
X158503884Y-16698609D02*
X158837217Y-16698609D01*
X158980074Y-17222419D02*
X158503884Y-17222419D01*
X158503884Y-17222419D02*
X158503884Y-16222419D01*
X158503884Y-16222419D02*
X158980074Y-16222419D01*
X159408646Y-17222419D02*
X159408646Y-16222419D01*
X159408646Y-16222419D02*
X159980074Y-17222419D01*
X159980074Y-17222419D02*
X159980074Y-16222419D01*
X158230074Y-25472419D02*
X157753884Y-25472419D01*
X157753884Y-25472419D02*
X157753884Y-24472419D01*
X158563408Y-25472419D02*
X158563408Y-24472419D01*
X159039598Y-25472419D02*
X159039598Y-24472419D01*
X159039598Y-24472419D02*
X159372931Y-25186704D01*
X159372931Y-25186704D02*
X159706264Y-24472419D01*
X159706264Y-24472419D02*
X159706264Y-25472419D01*
X160706264Y-25472419D02*
X160134836Y-25472419D01*
X160420550Y-25472419D02*
X160420550Y-24472419D01*
X160420550Y-24472419D02*
X160325312Y-24615276D01*
X160325312Y-24615276D02*
X160230074Y-24710514D01*
X160230074Y-24710514D02*
X160134836Y-24758133D01*
X158230074Y-8472419D02*
X157753884Y-8472419D01*
X157753884Y-8472419D02*
X157753884Y-7472419D01*
X158563408Y-8472419D02*
X158563408Y-7472419D01*
X159039598Y-8472419D02*
X159039598Y-7472419D01*
X159039598Y-7472419D02*
X159372931Y-8186704D01*
X159372931Y-8186704D02*
X159706264Y-7472419D01*
X159706264Y-7472419D02*
X159706264Y-8472419D01*
X160706264Y-8472419D02*
X160134836Y-8472419D01*
X160420550Y-8472419D02*
X160420550Y-7472419D01*
X160420550Y-7472419D02*
X160325312Y-7615276D01*
X160325312Y-7615276D02*
X160230074Y-7710514D01*
X160230074Y-7710514D02*
X160134836Y-7758133D01*
X158837217Y2051390D02*
X158503884Y2051390D01*
X158503884Y1527580D02*
X158503884Y2527580D01*
X158503884Y2527580D02*
X158980074Y2527580D01*
X159837217Y1527580D02*
X159361027Y1527580D01*
X159361027Y1527580D02*
X159361027Y2527580D01*
X160027694Y2527580D02*
X160599122Y2527580D01*
X160313408Y1527580D02*
X160313408Y2527580D01*
X158230074Y-10472419D02*
X157753884Y-10472419D01*
X157753884Y-10472419D02*
X157753884Y-9472419D01*
X158563408Y-10472419D02*
X158563408Y-9472419D01*
X159039598Y-10472419D02*
X159039598Y-9472419D01*
X159039598Y-9472419D02*
X159372931Y-10186704D01*
X159372931Y-10186704D02*
X159706264Y-9472419D01*
X159706264Y-9472419D02*
X159706264Y-10472419D01*
X160134836Y-9567657D02*
X160182455Y-9520038D01*
X160182455Y-9520038D02*
X160277693Y-9472419D01*
X160277693Y-9472419D02*
X160515788Y-9472419D01*
X160515788Y-9472419D02*
X160611026Y-9520038D01*
X160611026Y-9520038D02*
X160658645Y-9567657D01*
X160658645Y-9567657D02*
X160706264Y-9662895D01*
X160706264Y-9662895D02*
X160706264Y-9758133D01*
X160706264Y-9758133D02*
X160658645Y-9900990D01*
X160658645Y-9900990D02*
X160087217Y-10472419D01*
X160087217Y-10472419D02*
X160706264Y-10472419D01*
X158503884Y301390D02*
X158837217Y301390D01*
X158980074Y-222419D02*
X158503884Y-222419D01*
X158503884Y-222419D02*
X158503884Y777580D01*
X158503884Y777580D02*
X158980074Y777580D01*
X159408646Y-222419D02*
X159408646Y777580D01*
X159408646Y777580D02*
X159980074Y-222419D01*
X159980074Y-222419D02*
X159980074Y777580D01*
X159075312Y-3377180D02*
X159027693Y-3424800D01*
X159027693Y-3424800D02*
X158884836Y-3472419D01*
X158884836Y-3472419D02*
X158789598Y-3472419D01*
X158789598Y-3472419D02*
X158646741Y-3424800D01*
X158646741Y-3424800D02*
X158551503Y-3329561D01*
X158551503Y-3329561D02*
X158503884Y-3234323D01*
X158503884Y-3234323D02*
X158456265Y-3043847D01*
X158456265Y-3043847D02*
X158456265Y-2900990D01*
X158456265Y-2900990D02*
X158503884Y-2710514D01*
X158503884Y-2710514D02*
X158551503Y-2615276D01*
X158551503Y-2615276D02*
X158646741Y-2520038D01*
X158646741Y-2520038D02*
X158789598Y-2472419D01*
X158789598Y-2472419D02*
X158884836Y-2472419D01*
X158884836Y-2472419D02*
X159027693Y-2520038D01*
X159027693Y-2520038D02*
X159075312Y-2567657D01*
X159980074Y-3472419D02*
X159503884Y-3472419D01*
X159503884Y-3472419D02*
X159503884Y-2472419D01*
X160313408Y-3472419D02*
X160313408Y-2472419D01*
X160884836Y-3472419D02*
X160456265Y-2900990D01*
X160884836Y-2472419D02*
X160313408Y-3043847D01*
X158503884Y-5472419D02*
X158503884Y-4472419D01*
X158503884Y-4472419D02*
X158741979Y-4472419D01*
X158741979Y-4472419D02*
X158884836Y-4520038D01*
X158884836Y-4520038D02*
X158980074Y-4615276D01*
X158980074Y-4615276D02*
X159027693Y-4710514D01*
X159027693Y-4710514D02*
X159075312Y-4900990D01*
X159075312Y-4900990D02*
X159075312Y-5043847D01*
X159075312Y-5043847D02*
X159027693Y-5234323D01*
X159027693Y-5234323D02*
X158980074Y-5329561D01*
X158980074Y-5329561D02*
X158884836Y-5424800D01*
X158884836Y-5424800D02*
X158741979Y-5472419D01*
X158741979Y-5472419D02*
X158503884Y-5472419D01*
X159503884Y-5472419D02*
X159503884Y-4472419D01*
X160551502Y-5472419D02*
X160218169Y-4996228D01*
X159980074Y-5472419D02*
X159980074Y-4472419D01*
X159980074Y-4472419D02*
X160361026Y-4472419D01*
X160361026Y-4472419D02*
X160456264Y-4520038D01*
X160456264Y-4520038D02*
X160503883Y-4567657D01*
X160503883Y-4567657D02*
X160551502Y-4662895D01*
X160551502Y-4662895D02*
X160551502Y-4805752D01*
X160551502Y-4805752D02*
X160503883Y-4900990D01*
X160503883Y-4900990D02*
X160456264Y-4948609D01*
X160456264Y-4948609D02*
X160361026Y-4996228D01*
X160361026Y-4996228D02*
X159980074Y-4996228D01*
X158230074Y6527580D02*
X157753884Y6527580D01*
X157753884Y6527580D02*
X157753884Y7527580D01*
X158563408Y6527580D02*
X158563408Y7527580D01*
X159039598Y6527580D02*
X159039598Y7527580D01*
X159039598Y7527580D02*
X159372931Y6813295D01*
X159372931Y6813295D02*
X159706264Y7527580D01*
X159706264Y7527580D02*
X159706264Y6527580D01*
X160087217Y7527580D02*
X160706264Y7527580D01*
X160706264Y7527580D02*
X160372931Y7146628D01*
X160372931Y7146628D02*
X160515788Y7146628D01*
X160515788Y7146628D02*
X160611026Y7099009D01*
X160611026Y7099009D02*
X160658645Y7051390D01*
X160658645Y7051390D02*
X160706264Y6956152D01*
X160706264Y6956152D02*
X160706264Y6718057D01*
X160706264Y6718057D02*
X160658645Y6622819D01*
X160658645Y6622819D02*
X160611026Y6575200D01*
X160611026Y6575200D02*
X160515788Y6527580D01*
X160515788Y6527580D02*
X160230074Y6527580D01*
X160230074Y6527580D02*
X160134836Y6575200D01*
X160134836Y6575200D02*
X160087217Y6622819D01*
X158503884Y13527580D02*
X158503884Y14527580D01*
X158503884Y14527580D02*
X158741979Y14527580D01*
X158741979Y14527580D02*
X158884836Y14479961D01*
X158884836Y14479961D02*
X158980074Y14384723D01*
X158980074Y14384723D02*
X159027693Y14289485D01*
X159027693Y14289485D02*
X159075312Y14099009D01*
X159075312Y14099009D02*
X159075312Y13956152D01*
X159075312Y13956152D02*
X159027693Y13765676D01*
X159027693Y13765676D02*
X158980074Y13670438D01*
X158980074Y13670438D02*
X158884836Y13575200D01*
X158884836Y13575200D02*
X158741979Y13527580D01*
X158741979Y13527580D02*
X158503884Y13527580D01*
X159503884Y13527580D02*
X159503884Y14527580D01*
X160551502Y13527580D02*
X160218169Y14003771D01*
X159980074Y13527580D02*
X159980074Y14527580D01*
X159980074Y14527580D02*
X160361026Y14527580D01*
X160361026Y14527580D02*
X160456264Y14479961D01*
X160456264Y14479961D02*
X160503883Y14432342D01*
X160503883Y14432342D02*
X160551502Y14337104D01*
X160551502Y14337104D02*
X160551502Y14194247D01*
X160551502Y14194247D02*
X160503883Y14099009D01*
X160503883Y14099009D02*
X160456264Y14051390D01*
X160456264Y14051390D02*
X160361026Y14003771D01*
X160361026Y14003771D02*
X159980074Y14003771D01*
X158230074Y10527580D02*
X157753884Y10527580D01*
X157753884Y10527580D02*
X157753884Y11527580D01*
X158563408Y10527580D02*
X158563408Y11527580D01*
X159039598Y10527580D02*
X159039598Y11527580D01*
X159039598Y11527580D02*
X159372931Y10813295D01*
X159372931Y10813295D02*
X159706264Y11527580D01*
X159706264Y11527580D02*
X159706264Y10527580D01*
X160706264Y10527580D02*
X160134836Y10527580D01*
X160420550Y10527580D02*
X160420550Y11527580D01*
X160420550Y11527580D02*
X160325312Y11384723D01*
X160325312Y11384723D02*
X160230074Y11289485D01*
X160230074Y11289485D02*
X160134836Y11241866D01*
X158230074Y8527580D02*
X157753884Y8527580D01*
X157753884Y8527580D02*
X157753884Y9527580D01*
X158563408Y8527580D02*
X158563408Y9527580D01*
X159039598Y8527580D02*
X159039598Y9527580D01*
X159039598Y9527580D02*
X159372931Y8813295D01*
X159372931Y8813295D02*
X159706264Y9527580D01*
X159706264Y9527580D02*
X159706264Y8527580D01*
X160134836Y9432342D02*
X160182455Y9479961D01*
X160182455Y9479961D02*
X160277693Y9527580D01*
X160277693Y9527580D02*
X160515788Y9527580D01*
X160515788Y9527580D02*
X160611026Y9479961D01*
X160611026Y9479961D02*
X160658645Y9432342D01*
X160658645Y9432342D02*
X160706264Y9337104D01*
X160706264Y9337104D02*
X160706264Y9241866D01*
X160706264Y9241866D02*
X160658645Y9099009D01*
X160658645Y9099009D02*
X160087217Y8527580D01*
X160087217Y8527580D02*
X160706264Y8527580D01*
X158837217Y21051390D02*
X158503884Y21051390D01*
X158503884Y20527580D02*
X158503884Y21527580D01*
X158503884Y21527580D02*
X158980074Y21527580D01*
X159837217Y20527580D02*
X159361027Y20527580D01*
X159361027Y20527580D02*
X159361027Y21527580D01*
X160027694Y21527580D02*
X160599122Y21527580D01*
X160313408Y20527580D02*
X160313408Y21527580D01*
X159075312Y15622819D02*
X159027693Y15575200D01*
X159027693Y15575200D02*
X158884836Y15527580D01*
X158884836Y15527580D02*
X158789598Y15527580D01*
X158789598Y15527580D02*
X158646741Y15575200D01*
X158646741Y15575200D02*
X158551503Y15670438D01*
X158551503Y15670438D02*
X158503884Y15765676D01*
X158503884Y15765676D02*
X158456265Y15956152D01*
X158456265Y15956152D02*
X158456265Y16099009D01*
X158456265Y16099009D02*
X158503884Y16289485D01*
X158503884Y16289485D02*
X158551503Y16384723D01*
X158551503Y16384723D02*
X158646741Y16479961D01*
X158646741Y16479961D02*
X158789598Y16527580D01*
X158789598Y16527580D02*
X158884836Y16527580D01*
X158884836Y16527580D02*
X159027693Y16479961D01*
X159027693Y16479961D02*
X159075312Y16432342D01*
X159980074Y15527580D02*
X159503884Y15527580D01*
X159503884Y15527580D02*
X159503884Y16527580D01*
X160313408Y15527580D02*
X160313408Y16527580D01*
X160884836Y15527580D02*
X160456265Y16099009D01*
X160884836Y16527580D02*
X160313408Y15956152D01*
X158503884Y19301390D02*
X158837217Y19301390D01*
X158980074Y18777580D02*
X158503884Y18777580D01*
X158503884Y18777580D02*
X158503884Y19777580D01*
X158503884Y19777580D02*
X158980074Y19777580D01*
X159408646Y18777580D02*
X159408646Y19777580D01*
X159408646Y19777580D02*
X159980074Y18777580D01*
X159980074Y18777580D02*
X159980074Y19777580D01*
X158280074Y26627580D02*
X157803884Y26627580D01*
X157803884Y26627580D02*
X157803884Y27627580D01*
X158613408Y26627580D02*
X158613408Y27627580D01*
X159089598Y26627580D02*
X159089598Y27627580D01*
X159089598Y27627580D02*
X159422931Y26913295D01*
X159422931Y26913295D02*
X159756264Y27627580D01*
X159756264Y27627580D02*
X159756264Y26627580D01*
X160184836Y27532342D02*
X160232455Y27579961D01*
X160232455Y27579961D02*
X160327693Y27627580D01*
X160327693Y27627580D02*
X160565788Y27627580D01*
X160565788Y27627580D02*
X160661026Y27579961D01*
X160661026Y27579961D02*
X160708645Y27532342D01*
X160708645Y27532342D02*
X160756264Y27437104D01*
X160756264Y27437104D02*
X160756264Y27341866D01*
X160756264Y27341866D02*
X160708645Y27199009D01*
X160708645Y27199009D02*
X160137217Y26627580D01*
X160137217Y26627580D02*
X160756264Y26627580D01*
X158280074Y28627580D02*
X157803884Y28627580D01*
X157803884Y28627580D02*
X157803884Y29627580D01*
X158613408Y28627580D02*
X158613408Y29627580D01*
X159089598Y28627580D02*
X159089598Y29627580D01*
X159089598Y29627580D02*
X159422931Y28913295D01*
X159422931Y28913295D02*
X159756264Y29627580D01*
X159756264Y29627580D02*
X159756264Y28627580D01*
X160756264Y28627580D02*
X160184836Y28627580D01*
X160470550Y28627580D02*
X160470550Y29627580D01*
X160470550Y29627580D02*
X160375312Y29484723D01*
X160375312Y29484723D02*
X160280074Y29389485D01*
X160280074Y29389485D02*
X160184836Y29341866D01*
X158553884Y31627580D02*
X158553884Y32627580D01*
X158553884Y32627580D02*
X158791979Y32627580D01*
X158791979Y32627580D02*
X158934836Y32579961D01*
X158934836Y32579961D02*
X159030074Y32484723D01*
X159030074Y32484723D02*
X159077693Y32389485D01*
X159077693Y32389485D02*
X159125312Y32199009D01*
X159125312Y32199009D02*
X159125312Y32056152D01*
X159125312Y32056152D02*
X159077693Y31865676D01*
X159077693Y31865676D02*
X159030074Y31770438D01*
X159030074Y31770438D02*
X158934836Y31675200D01*
X158934836Y31675200D02*
X158791979Y31627580D01*
X158791979Y31627580D02*
X158553884Y31627580D01*
X159553884Y31627580D02*
X159553884Y32627580D01*
X160601502Y31627580D02*
X160268169Y32103771D01*
X160030074Y31627580D02*
X160030074Y32627580D01*
X160030074Y32627580D02*
X160411026Y32627580D01*
X160411026Y32627580D02*
X160506264Y32579961D01*
X160506264Y32579961D02*
X160553883Y32532342D01*
X160553883Y32532342D02*
X160601502Y32437104D01*
X160601502Y32437104D02*
X160601502Y32294247D01*
X160601502Y32294247D02*
X160553883Y32199009D01*
X160553883Y32199009D02*
X160506264Y32151390D01*
X160506264Y32151390D02*
X160411026Y32103771D01*
X160411026Y32103771D02*
X160030074Y32103771D01*
X159125312Y33722819D02*
X159077693Y33675200D01*
X159077693Y33675200D02*
X158934836Y33627580D01*
X158934836Y33627580D02*
X158839598Y33627580D01*
X158839598Y33627580D02*
X158696741Y33675200D01*
X158696741Y33675200D02*
X158601503Y33770438D01*
X158601503Y33770438D02*
X158553884Y33865676D01*
X158553884Y33865676D02*
X158506265Y34056152D01*
X158506265Y34056152D02*
X158506265Y34199009D01*
X158506265Y34199009D02*
X158553884Y34389485D01*
X158553884Y34389485D02*
X158601503Y34484723D01*
X158601503Y34484723D02*
X158696741Y34579961D01*
X158696741Y34579961D02*
X158839598Y34627580D01*
X158839598Y34627580D02*
X158934836Y34627580D01*
X158934836Y34627580D02*
X159077693Y34579961D01*
X159077693Y34579961D02*
X159125312Y34532342D01*
X160030074Y33627580D02*
X159553884Y33627580D01*
X159553884Y33627580D02*
X159553884Y34627580D01*
X160363408Y33627580D02*
X160363408Y34627580D01*
X160934836Y33627580D02*
X160506265Y34199009D01*
X160934836Y34627580D02*
X160363408Y34056152D01*
X158553884Y37151390D02*
X158887217Y37151390D01*
X159030074Y36627580D02*
X158553884Y36627580D01*
X158553884Y36627580D02*
X158553884Y37627580D01*
X158553884Y37627580D02*
X159030074Y37627580D01*
X159458646Y36627580D02*
X159458646Y37627580D01*
X159458646Y37627580D02*
X160030074Y36627580D01*
X160030074Y36627580D02*
X160030074Y37627580D01*
X158887217Y38901390D02*
X158553884Y38901390D01*
X158553884Y38377580D02*
X158553884Y39377580D01*
X158553884Y39377580D02*
X159030074Y39377580D01*
X159887217Y38377580D02*
X159411027Y38377580D01*
X159411027Y38377580D02*
X159411027Y39377580D01*
X160077694Y39377580D02*
X160649122Y39377580D01*
X160363408Y38377580D02*
X160363408Y39377580D01*
D12*
X107475476Y5350180D02*
X107475476Y4635895D01*
X107475476Y4635895D02*
X107427857Y4493038D01*
X107427857Y4493038D02*
X107332619Y4397800D01*
X107332619Y4397800D02*
X107189762Y4350180D01*
X107189762Y4350180D02*
X107094524Y4350180D01*
X108475476Y4350180D02*
X107904048Y4350180D01*
X108189762Y4350180D02*
X108189762Y5350180D01*
X108189762Y5350180D02*
X108094524Y5207323D01*
X108094524Y5207323D02*
X107999286Y5112085D01*
X107999286Y5112085D02*
X107904048Y5064466D01*
X108808810Y5350180D02*
X109427857Y5350180D01*
X109427857Y5350180D02*
X109094524Y4969228D01*
X109094524Y4969228D02*
X109237381Y4969228D01*
X109237381Y4969228D02*
X109332619Y4921609D01*
X109332619Y4921609D02*
X109380238Y4873990D01*
X109380238Y4873990D02*
X109427857Y4778752D01*
X109427857Y4778752D02*
X109427857Y4540657D01*
X109427857Y4540657D02*
X109380238Y4445419D01*
X109380238Y4445419D02*
X109332619Y4397800D01*
X109332619Y4397800D02*
X109237381Y4350180D01*
X109237381Y4350180D02*
X108951667Y4350180D01*
X108951667Y4350180D02*
X108856429Y4397800D01*
X108856429Y4397800D02*
X108808810Y4445419D01*
X127475476Y5350180D02*
X127475476Y4635895D01*
X127475476Y4635895D02*
X127427857Y4493038D01*
X127427857Y4493038D02*
X127332619Y4397800D01*
X127332619Y4397800D02*
X127189762Y4350180D01*
X127189762Y4350180D02*
X127094524Y4350180D01*
X128475476Y4350180D02*
X127904048Y4350180D01*
X128189762Y4350180D02*
X128189762Y5350180D01*
X128189762Y5350180D02*
X128094524Y5207323D01*
X128094524Y5207323D02*
X127999286Y5112085D01*
X127999286Y5112085D02*
X127904048Y5064466D01*
X129380238Y5350180D02*
X128904048Y5350180D01*
X128904048Y5350180D02*
X128856429Y4873990D01*
X128856429Y4873990D02*
X128904048Y4921609D01*
X128904048Y4921609D02*
X128999286Y4969228D01*
X128999286Y4969228D02*
X129237381Y4969228D01*
X129237381Y4969228D02*
X129332619Y4921609D01*
X129332619Y4921609D02*
X129380238Y4873990D01*
X129380238Y4873990D02*
X129427857Y4778752D01*
X129427857Y4778752D02*
X129427857Y4540657D01*
X129427857Y4540657D02*
X129380238Y4445419D01*
X129380238Y4445419D02*
X129332619Y4397800D01*
X129332619Y4397800D02*
X129237381Y4350180D01*
X129237381Y4350180D02*
X128999286Y4350180D01*
X128999286Y4350180D02*
X128904048Y4397800D01*
X128904048Y4397800D02*
X128856429Y4445419D01*
X107911666Y17850180D02*
X107911666Y17135895D01*
X107911666Y17135895D02*
X107864047Y16993038D01*
X107864047Y16993038D02*
X107768809Y16897800D01*
X107768809Y16897800D02*
X107625952Y16850180D01*
X107625952Y16850180D02*
X107530714Y16850180D01*
X108435476Y16850180D02*
X108625952Y16850180D01*
X108625952Y16850180D02*
X108721190Y16897800D01*
X108721190Y16897800D02*
X108768809Y16945419D01*
X108768809Y16945419D02*
X108864047Y17088276D01*
X108864047Y17088276D02*
X108911666Y17278752D01*
X108911666Y17278752D02*
X108911666Y17659704D01*
X108911666Y17659704D02*
X108864047Y17754942D01*
X108864047Y17754942D02*
X108816428Y17802561D01*
X108816428Y17802561D02*
X108721190Y17850180D01*
X108721190Y17850180D02*
X108530714Y17850180D01*
X108530714Y17850180D02*
X108435476Y17802561D01*
X108435476Y17802561D02*
X108387857Y17754942D01*
X108387857Y17754942D02*
X108340238Y17659704D01*
X108340238Y17659704D02*
X108340238Y17421609D01*
X108340238Y17421609D02*
X108387857Y17326371D01*
X108387857Y17326371D02*
X108435476Y17278752D01*
X108435476Y17278752D02*
X108530714Y17231133D01*
X108530714Y17231133D02*
X108721190Y17231133D01*
X108721190Y17231133D02*
X108816428Y17278752D01*
X108816428Y17278752D02*
X108864047Y17326371D01*
X108864047Y17326371D02*
X108911666Y17421609D01*
X141015476Y30350180D02*
X141015476Y29635895D01*
X141015476Y29635895D02*
X140967857Y29493038D01*
X140967857Y29493038D02*
X140872619Y29397800D01*
X140872619Y29397800D02*
X140729762Y29350180D01*
X140729762Y29350180D02*
X140634524Y29350180D01*
X142015476Y29350180D02*
X141444048Y29350180D01*
X141729762Y29350180D02*
X141729762Y30350180D01*
X141729762Y30350180D02*
X141634524Y30207323D01*
X141634524Y30207323D02*
X141539286Y30112085D01*
X141539286Y30112085D02*
X141444048Y30064466D01*
X142967857Y29350180D02*
X142396429Y29350180D01*
X142682143Y29350180D02*
X142682143Y30350180D01*
X142682143Y30350180D02*
X142586905Y30207323D01*
X142586905Y30207323D02*
X142491667Y30112085D01*
X142491667Y30112085D02*
X142396429Y30064466D01*
X144254819Y-3511904D02*
X145064342Y-3511904D01*
X145064342Y-3511904D02*
X145159580Y-3464285D01*
X145159580Y-3464285D02*
X145207200Y-3416666D01*
X145207200Y-3416666D02*
X145254819Y-3321428D01*
X145254819Y-3321428D02*
X145254819Y-3130952D01*
X145254819Y-3130952D02*
X145207200Y-3035714D01*
X145207200Y-3035714D02*
X145159580Y-2988095D01*
X145159580Y-2988095D02*
X145064342Y-2940476D01*
X145064342Y-2940476D02*
X144254819Y-2940476D01*
X144254819Y-1988095D02*
X144254819Y-2464285D01*
X144254819Y-2464285D02*
X144731009Y-2511904D01*
X144731009Y-2511904D02*
X144683390Y-2464285D01*
X144683390Y-2464285D02*
X144635771Y-2369047D01*
X144635771Y-2369047D02*
X144635771Y-2130952D01*
X144635771Y-2130952D02*
X144683390Y-2035714D01*
X144683390Y-2035714D02*
X144731009Y-1988095D01*
X144731009Y-1988095D02*
X144826247Y-1940476D01*
X144826247Y-1940476D02*
X145064342Y-1940476D01*
X145064342Y-1940476D02*
X145159580Y-1988095D01*
X145159580Y-1988095D02*
X145207200Y-2035714D01*
X145207200Y-2035714D02*
X145254819Y-2130952D01*
X145254819Y-2130952D02*
X145254819Y-2369047D01*
X145254819Y-2369047D02*
X145207200Y-2464285D01*
X145207200Y-2464285D02*
X145159580Y-2511904D01*
X147438095Y-97954819D02*
X148009523Y-97954819D01*
X147723809Y-98954819D02*
X147723809Y-97954819D01*
X148342857Y-98954819D02*
X148342857Y-97954819D01*
X148342857Y-97954819D02*
X148723809Y-97954819D01*
X148723809Y-97954819D02*
X148819047Y-98002438D01*
X148819047Y-98002438D02*
X148866666Y-98050057D01*
X148866666Y-98050057D02*
X148914285Y-98145295D01*
X148914285Y-98145295D02*
X148914285Y-98288152D01*
X148914285Y-98288152D02*
X148866666Y-98383390D01*
X148866666Y-98383390D02*
X148819047Y-98431009D01*
X148819047Y-98431009D02*
X148723809Y-98478628D01*
X148723809Y-98478628D02*
X148342857Y-98478628D01*
X149866666Y-98954819D02*
X149295238Y-98954819D01*
X149580952Y-98954819D02*
X149580952Y-97954819D01*
X149580952Y-97954819D02*
X149485714Y-98097676D01*
X149485714Y-98097676D02*
X149390476Y-98192914D01*
X149390476Y-98192914D02*
X149295238Y-98240533D01*
X115988095Y-72404819D02*
X115988095Y-73214342D01*
X115988095Y-73214342D02*
X116035714Y-73309580D01*
X116035714Y-73309580D02*
X116083333Y-73357200D01*
X116083333Y-73357200D02*
X116178571Y-73404819D01*
X116178571Y-73404819D02*
X116369047Y-73404819D01*
X116369047Y-73404819D02*
X116464285Y-73357200D01*
X116464285Y-73357200D02*
X116511904Y-73309580D01*
X116511904Y-73309580D02*
X116559523Y-73214342D01*
X116559523Y-73214342D02*
X116559523Y-72404819D01*
X116988095Y-72500057D02*
X117035714Y-72452438D01*
X117035714Y-72452438D02*
X117130952Y-72404819D01*
X117130952Y-72404819D02*
X117369047Y-72404819D01*
X117369047Y-72404819D02*
X117464285Y-72452438D01*
X117464285Y-72452438D02*
X117511904Y-72500057D01*
X117511904Y-72500057D02*
X117559523Y-72595295D01*
X117559523Y-72595295D02*
X117559523Y-72690533D01*
X117559523Y-72690533D02*
X117511904Y-72833390D01*
X117511904Y-72833390D02*
X116940476Y-73404819D01*
X116940476Y-73404819D02*
X117559523Y-73404819D01*
X79264819Y-29283333D02*
X79979104Y-29283333D01*
X79979104Y-29283333D02*
X80121961Y-29330952D01*
X80121961Y-29330952D02*
X80217200Y-29426190D01*
X80217200Y-29426190D02*
X80264819Y-29569047D01*
X80264819Y-29569047D02*
X80264819Y-29664285D01*
X79360057Y-28854761D02*
X79312438Y-28807142D01*
X79312438Y-28807142D02*
X79264819Y-28711904D01*
X79264819Y-28711904D02*
X79264819Y-28473809D01*
X79264819Y-28473809D02*
X79312438Y-28378571D01*
X79312438Y-28378571D02*
X79360057Y-28330952D01*
X79360057Y-28330952D02*
X79455295Y-28283333D01*
X79455295Y-28283333D02*
X79550533Y-28283333D01*
X79550533Y-28283333D02*
X79693390Y-28330952D01*
X79693390Y-28330952D02*
X80264819Y-28902380D01*
X80264819Y-28902380D02*
X80264819Y-28283333D01*
X61109580Y41583333D02*
X61157200Y41535714D01*
X61157200Y41535714D02*
X61204819Y41392857D01*
X61204819Y41392857D02*
X61204819Y41297619D01*
X61204819Y41297619D02*
X61157200Y41154762D01*
X61157200Y41154762D02*
X61061961Y41059524D01*
X61061961Y41059524D02*
X60966723Y41011905D01*
X60966723Y41011905D02*
X60776247Y40964286D01*
X60776247Y40964286D02*
X60633390Y40964286D01*
X60633390Y40964286D02*
X60442914Y41011905D01*
X60442914Y41011905D02*
X60347676Y41059524D01*
X60347676Y41059524D02*
X60252438Y41154762D01*
X60252438Y41154762D02*
X60204819Y41297619D01*
X60204819Y41297619D02*
X60204819Y41392857D01*
X60204819Y41392857D02*
X60252438Y41535714D01*
X60252438Y41535714D02*
X60300057Y41583333D01*
X60300057Y41964286D02*
X60252438Y42011905D01*
X60252438Y42011905D02*
X60204819Y42107143D01*
X60204819Y42107143D02*
X60204819Y42345238D01*
X60204819Y42345238D02*
X60252438Y42440476D01*
X60252438Y42440476D02*
X60300057Y42488095D01*
X60300057Y42488095D02*
X60395295Y42535714D01*
X60395295Y42535714D02*
X60490533Y42535714D01*
X60490533Y42535714D02*
X60633390Y42488095D01*
X60633390Y42488095D02*
X61204819Y41916667D01*
X61204819Y41916667D02*
X61204819Y42535714D01*
X141015476Y17850180D02*
X141015476Y17135895D01*
X141015476Y17135895D02*
X140967857Y16993038D01*
X140967857Y16993038D02*
X140872619Y16897800D01*
X140872619Y16897800D02*
X140729762Y16850180D01*
X140729762Y16850180D02*
X140634524Y16850180D01*
X142015476Y16850180D02*
X141444048Y16850180D01*
X141729762Y16850180D02*
X141729762Y17850180D01*
X141729762Y17850180D02*
X141634524Y17707323D01*
X141634524Y17707323D02*
X141539286Y17612085D01*
X141539286Y17612085D02*
X141444048Y17564466D01*
X142396429Y17754942D02*
X142444048Y17802561D01*
X142444048Y17802561D02*
X142539286Y17850180D01*
X142539286Y17850180D02*
X142777381Y17850180D01*
X142777381Y17850180D02*
X142872619Y17802561D01*
X142872619Y17802561D02*
X142920238Y17754942D01*
X142920238Y17754942D02*
X142967857Y17659704D01*
X142967857Y17659704D02*
X142967857Y17564466D01*
X142967857Y17564466D02*
X142920238Y17421609D01*
X142920238Y17421609D02*
X142348810Y16850180D01*
X142348810Y16850180D02*
X142967857Y16850180D01*
X140666666Y36792680D02*
X140666666Y36078395D01*
X140666666Y36078395D02*
X140619047Y35935538D01*
X140619047Y35935538D02*
X140523809Y35840300D01*
X140523809Y35840300D02*
X140380952Y35792680D01*
X140380952Y35792680D02*
X140285714Y35792680D01*
X141571428Y36792680D02*
X141380952Y36792680D01*
X141380952Y36792680D02*
X141285714Y36745061D01*
X141285714Y36745061D02*
X141238095Y36697442D01*
X141238095Y36697442D02*
X141142857Y36554585D01*
X141142857Y36554585D02*
X141095238Y36364109D01*
X141095238Y36364109D02*
X141095238Y35983157D01*
X141095238Y35983157D02*
X141142857Y35887919D01*
X141142857Y35887919D02*
X141190476Y35840300D01*
X141190476Y35840300D02*
X141285714Y35792680D01*
X141285714Y35792680D02*
X141476190Y35792680D01*
X141476190Y35792680D02*
X141571428Y35840300D01*
X141571428Y35840300D02*
X141619047Y35887919D01*
X141619047Y35887919D02*
X141666666Y35983157D01*
X141666666Y35983157D02*
X141666666Y36221252D01*
X141666666Y36221252D02*
X141619047Y36316490D01*
X141619047Y36316490D02*
X141571428Y36364109D01*
X141571428Y36364109D02*
X141476190Y36411728D01*
X141476190Y36411728D02*
X141285714Y36411728D01*
X141285714Y36411728D02*
X141190476Y36364109D01*
X141190476Y36364109D02*
X141142857Y36316490D01*
X141142857Y36316490D02*
X141095238Y36221252D01*
X128031666Y17850180D02*
X128031666Y17135895D01*
X128031666Y17135895D02*
X127984047Y16993038D01*
X127984047Y16993038D02*
X127888809Y16897800D01*
X127888809Y16897800D02*
X127745952Y16850180D01*
X127745952Y16850180D02*
X127650714Y16850180D01*
X129031666Y16850180D02*
X128460238Y16850180D01*
X128745952Y16850180D02*
X128745952Y17850180D01*
X128745952Y17850180D02*
X128650714Y17707323D01*
X128650714Y17707323D02*
X128555476Y17612085D01*
X128555476Y17612085D02*
X128460238Y17564466D01*
X107951666Y30350180D02*
X107951666Y29635895D01*
X107951666Y29635895D02*
X107904047Y29493038D01*
X107904047Y29493038D02*
X107808809Y29397800D01*
X107808809Y29397800D02*
X107665952Y29350180D01*
X107665952Y29350180D02*
X107570714Y29350180D01*
X108570714Y29921609D02*
X108475476Y29969228D01*
X108475476Y29969228D02*
X108427857Y30016847D01*
X108427857Y30016847D02*
X108380238Y30112085D01*
X108380238Y30112085D02*
X108380238Y30159704D01*
X108380238Y30159704D02*
X108427857Y30254942D01*
X108427857Y30254942D02*
X108475476Y30302561D01*
X108475476Y30302561D02*
X108570714Y30350180D01*
X108570714Y30350180D02*
X108761190Y30350180D01*
X108761190Y30350180D02*
X108856428Y30302561D01*
X108856428Y30302561D02*
X108904047Y30254942D01*
X108904047Y30254942D02*
X108951666Y30159704D01*
X108951666Y30159704D02*
X108951666Y30112085D01*
X108951666Y30112085D02*
X108904047Y30016847D01*
X108904047Y30016847D02*
X108856428Y29969228D01*
X108856428Y29969228D02*
X108761190Y29921609D01*
X108761190Y29921609D02*
X108570714Y29921609D01*
X108570714Y29921609D02*
X108475476Y29873990D01*
X108475476Y29873990D02*
X108427857Y29826371D01*
X108427857Y29826371D02*
X108380238Y29731133D01*
X108380238Y29731133D02*
X108380238Y29540657D01*
X108380238Y29540657D02*
X108427857Y29445419D01*
X108427857Y29445419D02*
X108475476Y29397800D01*
X108475476Y29397800D02*
X108570714Y29350180D01*
X108570714Y29350180D02*
X108761190Y29350180D01*
X108761190Y29350180D02*
X108856428Y29397800D01*
X108856428Y29397800D02*
X108904047Y29445419D01*
X108904047Y29445419D02*
X108951666Y29540657D01*
X108951666Y29540657D02*
X108951666Y29731133D01*
X108951666Y29731133D02*
X108904047Y29826371D01*
X108904047Y29826371D02*
X108856428Y29873990D01*
X108856428Y29873990D02*
X108761190Y29921609D01*
X127515476Y30350180D02*
X127515476Y29635895D01*
X127515476Y29635895D02*
X127467857Y29493038D01*
X127467857Y29493038D02*
X127372619Y29397800D01*
X127372619Y29397800D02*
X127229762Y29350180D01*
X127229762Y29350180D02*
X127134524Y29350180D01*
X128515476Y29350180D02*
X127944048Y29350180D01*
X128229762Y29350180D02*
X128229762Y30350180D01*
X128229762Y30350180D02*
X128134524Y30207323D01*
X128134524Y30207323D02*
X128039286Y30112085D01*
X128039286Y30112085D02*
X127944048Y30064466D01*
X129372619Y30016847D02*
X129372619Y29350180D01*
X129134524Y30397800D02*
X128896429Y29683514D01*
X128896429Y29683514D02*
X129515476Y29683514D01*
D10*
X100488095Y40542580D02*
X100488095Y39733057D01*
X100488095Y39733057D02*
X100535714Y39637819D01*
X100535714Y39637819D02*
X100583333Y39590200D01*
X100583333Y39590200D02*
X100678571Y39542580D01*
X100678571Y39542580D02*
X100869047Y39542580D01*
X100869047Y39542580D02*
X100964285Y39590200D01*
X100964285Y39590200D02*
X101011904Y39637819D01*
X101011904Y39637819D02*
X101059523Y39733057D01*
X101059523Y39733057D02*
X101059523Y40542580D01*
X102059523Y39542580D02*
X101488095Y39542580D01*
X101773809Y39542580D02*
X101773809Y40542580D01*
X101773809Y40542580D02*
X101678571Y40399723D01*
X101678571Y40399723D02*
X101583333Y40304485D01*
X101583333Y40304485D02*
X101488095Y40256866D01*
D12*
X79264819Y-99283333D02*
X79979104Y-99283333D01*
X79979104Y-99283333D02*
X80121961Y-99330952D01*
X80121961Y-99330952D02*
X80217200Y-99426190D01*
X80217200Y-99426190D02*
X80264819Y-99569047D01*
X80264819Y-99569047D02*
X80264819Y-99664285D01*
X79264819Y-98902380D02*
X79264819Y-98283333D01*
X79264819Y-98283333D02*
X79645771Y-98616666D01*
X79645771Y-98616666D02*
X79645771Y-98473809D01*
X79645771Y-98473809D02*
X79693390Y-98378571D01*
X79693390Y-98378571D02*
X79741009Y-98330952D01*
X79741009Y-98330952D02*
X79836247Y-98283333D01*
X79836247Y-98283333D02*
X80074342Y-98283333D01*
X80074342Y-98283333D02*
X80169580Y-98330952D01*
X80169580Y-98330952D02*
X80217200Y-98378571D01*
X80217200Y-98378571D02*
X80264819Y-98473809D01*
X80264819Y-98473809D02*
X80264819Y-98759523D01*
X80264819Y-98759523D02*
X80217200Y-98854761D01*
X80217200Y-98854761D02*
X80169580Y-98902380D01*
X132804819Y37724642D02*
X132328628Y37391309D01*
X132804819Y37153214D02*
X131804819Y37153214D01*
X131804819Y37153214D02*
X131804819Y37534166D01*
X131804819Y37534166D02*
X131852438Y37629404D01*
X131852438Y37629404D02*
X131900057Y37677023D01*
X131900057Y37677023D02*
X131995295Y37724642D01*
X131995295Y37724642D02*
X132138152Y37724642D01*
X132138152Y37724642D02*
X132233390Y37677023D01*
X132233390Y37677023D02*
X132281009Y37629404D01*
X132281009Y37629404D02*
X132328628Y37534166D01*
X132328628Y37534166D02*
X132328628Y37153214D01*
X131900057Y38105595D02*
X131852438Y38153214D01*
X131852438Y38153214D02*
X131804819Y38248452D01*
X131804819Y38248452D02*
X131804819Y38486547D01*
X131804819Y38486547D02*
X131852438Y38581785D01*
X131852438Y38581785D02*
X131900057Y38629404D01*
X131900057Y38629404D02*
X131995295Y38677023D01*
X131995295Y38677023D02*
X132090533Y38677023D01*
X132090533Y38677023D02*
X132233390Y38629404D01*
X132233390Y38629404D02*
X132804819Y38057976D01*
X132804819Y38057976D02*
X132804819Y38677023D01*
X132138152Y39534166D02*
X132804819Y39534166D01*
X131757200Y39296071D02*
X132471485Y39057976D01*
X132471485Y39057976D02*
X132471485Y39677023D01*
X103908095Y-30254819D02*
X103908095Y-31064342D01*
X103908095Y-31064342D02*
X103955714Y-31159580D01*
X103955714Y-31159580D02*
X104003333Y-31207200D01*
X104003333Y-31207200D02*
X104098571Y-31254819D01*
X104098571Y-31254819D02*
X104289047Y-31254819D01*
X104289047Y-31254819D02*
X104384285Y-31207200D01*
X104384285Y-31207200D02*
X104431904Y-31159580D01*
X104431904Y-31159580D02*
X104479523Y-31064342D01*
X104479523Y-31064342D02*
X104479523Y-30254819D01*
X104860476Y-30254819D02*
X105479523Y-30254819D01*
X105479523Y-30254819D02*
X105146190Y-30635771D01*
X105146190Y-30635771D02*
X105289047Y-30635771D01*
X105289047Y-30635771D02*
X105384285Y-30683390D01*
X105384285Y-30683390D02*
X105431904Y-30731009D01*
X105431904Y-30731009D02*
X105479523Y-30826247D01*
X105479523Y-30826247D02*
X105479523Y-31064342D01*
X105479523Y-31064342D02*
X105431904Y-31159580D01*
X105431904Y-31159580D02*
X105384285Y-31207200D01*
X105384285Y-31207200D02*
X105289047Y-31254819D01*
X105289047Y-31254819D02*
X105003333Y-31254819D01*
X105003333Y-31254819D02*
X104908095Y-31207200D01*
X104908095Y-31207200D02*
X104860476Y-31159580D01*
X52859580Y41583333D02*
X52907200Y41535714D01*
X52907200Y41535714D02*
X52954819Y41392857D01*
X52954819Y41392857D02*
X52954819Y41297619D01*
X52954819Y41297619D02*
X52907200Y41154762D01*
X52907200Y41154762D02*
X52811961Y41059524D01*
X52811961Y41059524D02*
X52716723Y41011905D01*
X52716723Y41011905D02*
X52526247Y40964286D01*
X52526247Y40964286D02*
X52383390Y40964286D01*
X52383390Y40964286D02*
X52192914Y41011905D01*
X52192914Y41011905D02*
X52097676Y41059524D01*
X52097676Y41059524D02*
X52002438Y41154762D01*
X52002438Y41154762D02*
X51954819Y41297619D01*
X51954819Y41297619D02*
X51954819Y41392857D01*
X51954819Y41392857D02*
X52002438Y41535714D01*
X52002438Y41535714D02*
X52050057Y41583333D01*
X52954819Y42535714D02*
X52954819Y41964286D01*
X52954819Y42250000D02*
X51954819Y42250000D01*
X51954819Y42250000D02*
X52097676Y42154762D01*
X52097676Y42154762D02*
X52192914Y42059524D01*
X52192914Y42059524D02*
X52240533Y41964286D01*
X119666666Y36792680D02*
X119666666Y36078395D01*
X119666666Y36078395D02*
X119619047Y35935538D01*
X119619047Y35935538D02*
X119523809Y35840300D01*
X119523809Y35840300D02*
X119380952Y35792680D01*
X119380952Y35792680D02*
X119285714Y35792680D01*
X120619047Y36792680D02*
X120142857Y36792680D01*
X120142857Y36792680D02*
X120095238Y36316490D01*
X120095238Y36316490D02*
X120142857Y36364109D01*
X120142857Y36364109D02*
X120238095Y36411728D01*
X120238095Y36411728D02*
X120476190Y36411728D01*
X120476190Y36411728D02*
X120571428Y36364109D01*
X120571428Y36364109D02*
X120619047Y36316490D01*
X120619047Y36316490D02*
X120666666Y36221252D01*
X120666666Y36221252D02*
X120666666Y35983157D01*
X120666666Y35983157D02*
X120619047Y35887919D01*
X120619047Y35887919D02*
X120571428Y35840300D01*
X120571428Y35840300D02*
X120476190Y35792680D01*
X120476190Y35792680D02*
X120238095Y35792680D01*
X120238095Y35792680D02*
X120142857Y35840300D01*
X120142857Y35840300D02*
X120095238Y35887919D01*
X76666666Y36792680D02*
X76666666Y36078395D01*
X76666666Y36078395D02*
X76619047Y35935538D01*
X76619047Y35935538D02*
X76523809Y35840300D01*
X76523809Y35840300D02*
X76380952Y35792680D01*
X76380952Y35792680D02*
X76285714Y35792680D01*
X77047619Y36792680D02*
X77714285Y36792680D01*
X77714285Y36792680D02*
X77285714Y35792680D01*
X64479819Y30198095D02*
X65289342Y30198095D01*
X65289342Y30198095D02*
X65384580Y30245714D01*
X65384580Y30245714D02*
X65432200Y30293333D01*
X65432200Y30293333D02*
X65479819Y30388571D01*
X65479819Y30388571D02*
X65479819Y30579047D01*
X65479819Y30579047D02*
X65432200Y30674285D01*
X65432200Y30674285D02*
X65384580Y30721904D01*
X65384580Y30721904D02*
X65289342Y30769523D01*
X65289342Y30769523D02*
X64479819Y30769523D01*
X64813152Y31674285D02*
X65479819Y31674285D01*
X64432200Y31436190D02*
X65146485Y31198095D01*
X65146485Y31198095D02*
X65146485Y31817142D01*
D13*
%TO.C,J13*%
X119940000Y-500000D02*
X119340000Y0D01*
X119940000Y500000D02*
X119940000Y-500000D01*
X119340000Y0D02*
X119940000Y500000D01*
D14*
X118810000Y-2550000D02*
X108650000Y-2550000D01*
X118810000Y3170000D02*
X118810000Y-2550000D01*
X118810000Y3170000D02*
X108650000Y3170000D01*
X108650000Y-2550000D02*
X108650000Y3170000D01*
D13*
X108650000Y2000000D02*
X118810000Y2000000D01*
%TO.C,R31*%
X115735000Y6772936D02*
X115735000Y7227064D01*
X114265000Y6772936D02*
X114265000Y7227064D01*
%TO.C,J15*%
X139940000Y-500000D02*
X139340000Y0D01*
X139940000Y500000D02*
X139940000Y-500000D01*
X139340000Y0D02*
X139940000Y500000D01*
D14*
X138810000Y-2550000D02*
X128650000Y-2550000D01*
X138810000Y3170000D02*
X138810000Y-2550000D01*
X138810000Y3170000D02*
X128650000Y3170000D01*
X128650000Y-2550000D02*
X128650000Y3170000D01*
D13*
X128650000Y2000000D02*
X138810000Y2000000D01*
%TO.C,R26*%
X135735000Y6772936D02*
X135735000Y7227064D01*
X134265000Y6772936D02*
X134265000Y7227064D01*
%TO.C,R43*%
X135735000Y-5227064D02*
X135735000Y-4772936D01*
X134265000Y-5227064D02*
X134265000Y-4772936D01*
%TO.C,R4*%
X162772936Y14735000D02*
X163227064Y14735000D01*
X162772936Y13265000D02*
X163227064Y13265000D01*
%TO.C,D7*%
X165315000Y-19040000D02*
X165315000Y-20960000D01*
X165315000Y-20960000D02*
X168000000Y-20960000D01*
X168000000Y-19040000D02*
X165315000Y-19040000D01*
%TO.C,D16*%
X165315000Y-38040000D02*
X165315000Y-39960000D01*
X165315000Y-39960000D02*
X168000000Y-39960000D01*
X168000000Y-38040000D02*
X165315000Y-38040000D01*
%TO.C,J9*%
X108610000Y14500000D02*
X118770000Y14500000D01*
D14*
X108610000Y9950000D02*
X108610000Y15670000D01*
X118770000Y15670000D02*
X108610000Y15670000D01*
X118770000Y15670000D02*
X118770000Y9950000D01*
X118770000Y9950000D02*
X108610000Y9950000D01*
D13*
X119300000Y12500000D02*
X119900000Y13000000D01*
X119900000Y13000000D02*
X119900000Y12000000D01*
X119900000Y12000000D02*
X119300000Y12500000D01*
%TO.C,TP28*%
X165500000Y-113000000D02*
G75*
G02*
X162500000Y-113000000I-1500000J0D01*
G01*
X162500000Y-113000000D02*
G75*
G02*
X165500000Y-113000000I1500000J0D01*
G01*
%TO.C,J11*%
X153480000Y24500000D02*
X152880000Y25000000D01*
X153480000Y25500000D02*
X153480000Y24500000D01*
X152880000Y25000000D02*
X153480000Y25500000D01*
D14*
X152350000Y22450000D02*
X144730000Y22450000D01*
X152350000Y28170000D02*
X152350000Y22450000D01*
X152350000Y28170000D02*
X144730000Y28170000D01*
X144730000Y22450000D02*
X144730000Y28170000D01*
D13*
X144730000Y27000000D02*
X152350000Y27000000D01*
%TO.C,D11*%
X165315000Y-36040000D02*
X165315000Y-37960000D01*
X165315000Y-37960000D02*
X168000000Y-37960000D01*
X168000000Y-36040000D02*
X165315000Y-36040000D01*
%TO.C,TP20*%
X153500000Y-34300000D02*
G75*
G02*
X150500000Y-34300000I-1500000J0D01*
G01*
X150500000Y-34300000D02*
G75*
G02*
X153500000Y-34300000I1500000J0D01*
G01*
%TO.C,TP16*%
X96500000Y-41000000D02*
G75*
G02*
X93500000Y-41000000I-1500000J0D01*
G01*
X93500000Y-41000000D02*
G75*
G02*
X96500000Y-41000000I1500000J0D01*
G01*
%TO.C,U5*%
X145615000Y-2750000D02*
X145615000Y-550000D01*
X145615000Y-2750000D02*
X145615000Y-4950000D01*
X152385000Y-2750000D02*
X152385000Y-550000D01*
X152385000Y-2750000D02*
X152385000Y-4950000D01*
X146315000Y-6940000D02*
X145835000Y-6940000D01*
X146075000Y-6610000D01*
X146315000Y-6940000D01*
G36*
X146315000Y-6940000D02*
G01*
X145835000Y-6940000D01*
X146075000Y-6610000D01*
X146315000Y-6940000D01*
G37*
%TO.C,TP21*%
X161500000Y-56000000D02*
G75*
G02*
X158500000Y-56000000I-1500000J0D01*
G01*
X158500000Y-56000000D02*
G75*
G02*
X161500000Y-56000000I1500000J0D01*
G01*
%TO.C,D26*%
X165377500Y27960000D02*
X165377500Y26040000D01*
X165377500Y26040000D02*
X168062500Y26040000D01*
X168062500Y27960000D02*
X165377500Y27960000D01*
%TO.C,D6*%
X165315000Y-4040000D02*
X165315000Y-5960000D01*
X165315000Y-5960000D02*
X168000000Y-5960000D01*
X168000000Y-4040000D02*
X165315000Y-4040000D01*
%TO.C,R38*%
X162772936Y7735000D02*
X163227064Y7735000D01*
X162772936Y6265000D02*
X163227064Y6265000D01*
%TO.C,TP1*%
X149500000Y-96000000D02*
G75*
G02*
X146500000Y-96000000I-1500000J0D01*
G01*
X146500000Y-96000000D02*
G75*
G02*
X149500000Y-96000000I1500000J0D01*
G01*
%TO.C,D19*%
X165377500Y39960000D02*
X165377500Y38040000D01*
X165377500Y38040000D02*
X168062500Y38040000D01*
X168062500Y39960000D02*
X165377500Y39960000D01*
%TO.C,D28*%
X165377500Y29960000D02*
X165377500Y28040000D01*
X165377500Y28040000D02*
X168062500Y28040000D01*
X168062500Y29960000D02*
X165377500Y29960000D01*
%TO.C,TP12*%
X117500000Y-43000000D02*
G75*
G02*
X114500000Y-43000000I-1500000J0D01*
G01*
X114500000Y-43000000D02*
G75*
G02*
X117500000Y-43000000I1500000J0D01*
G01*
%TO.C,R21*%
X162772936Y39735000D02*
X163227064Y39735000D01*
X162772936Y38265000D02*
X163227064Y38265000D01*
%TO.C,U2*%
X116750000Y-65365000D02*
X114550000Y-65365000D01*
X116750000Y-65365000D02*
X118950000Y-65365000D01*
X116750000Y-72135000D02*
X114550000Y-72135000D01*
X116750000Y-72135000D02*
X118950000Y-72135000D01*
X120940000Y-71915000D02*
X120610000Y-71675000D01*
X120940000Y-71435000D01*
X120940000Y-71915000D01*
G36*
X120940000Y-71915000D02*
G01*
X120610000Y-71675000D01*
X120940000Y-71435000D01*
X120940000Y-71915000D01*
G37*
%TO.C,R10*%
X162772936Y735000D02*
X163227064Y735000D01*
X162772936Y-735000D02*
X163227064Y-735000D01*
%TO.C,R14*%
X162772936Y-16265000D02*
X163227064Y-16265000D01*
X162772936Y-17735000D02*
X163227064Y-17735000D01*
%TO.C,R15*%
X162772936Y-34265000D02*
X163227064Y-34265000D01*
X162772936Y-35735000D02*
X163227064Y-35735000D01*
%TO.C,TP5*%
X165500000Y-133900000D02*
G75*
G02*
X162500000Y-133900000I-1500000J0D01*
G01*
X162500000Y-133900000D02*
G75*
G02*
X165500000Y-133900000I1500000J0D01*
G01*
%TO.C,D30*%
X165315000Y-29040000D02*
X165315000Y-30960000D01*
X165315000Y-30960000D02*
X168000000Y-30960000D01*
X168000000Y-29040000D02*
X165315000Y-29040000D01*
%TO.C,J2*%
X66190000Y-54500000D02*
X66190000Y-3400000D01*
X67250000Y-2340000D02*
X77750000Y-2340000D01*
X68490000Y-12547048D02*
X68490000Y-45352952D01*
X74561744Y-10083530D02*
X69861744Y-10912267D01*
X74561744Y-47816470D02*
X69861744Y-46987733D01*
X76510000Y-11718311D02*
X76510000Y-46181689D01*
X77750000Y-55560000D02*
X67250000Y-55560000D01*
X78810000Y-3400000D02*
X78810000Y-54500000D01*
X79271325Y-45570000D02*
X79704338Y-45320000D01*
X79704338Y-45320000D02*
X79704338Y-45820000D01*
X79704338Y-45820000D02*
X79271325Y-45570000D01*
X66190000Y-3400000D02*
G75*
G02*
X67250000Y-2340000I1060001J-1D01*
G01*
X67250000Y-55560000D02*
G75*
G02*
X66190000Y-54500000I0J1060000D01*
G01*
X68490000Y-12547048D02*
G75*
G02*
X69861744Y-10912267I1659999J1D01*
G01*
X69861744Y-46987733D02*
G75*
G02*
X68490000Y-45352952I288255J1634780D01*
G01*
X74561744Y-10083530D02*
G75*
G02*
X76510000Y-11718311I288256J-1634781D01*
G01*
X76510000Y-46181689D02*
G75*
G02*
X74561744Y-47816471I-1660000J-1D01*
G01*
X77750000Y-2340000D02*
G75*
G02*
X78810000Y-3400000I-1J-1060001D01*
G01*
X78810000Y-54500000D02*
G75*
G02*
X77750000Y-55560000I-1060000J0D01*
G01*
%TO.C,C2*%
X61920000Y41790000D02*
X63160000Y41790000D01*
X61920000Y41750000D02*
X63160000Y41750000D01*
X61921000Y41830000D02*
X63160000Y41830000D01*
X61923000Y41870000D02*
X63160000Y41870000D01*
X61926000Y41910000D02*
X63160000Y41910000D01*
X61929000Y41950000D02*
X63160000Y41950000D01*
X61933000Y41990000D02*
X63160000Y41990000D01*
X61938000Y42030000D02*
X63160000Y42030000D01*
X61944000Y42070000D02*
X63160000Y42070000D01*
X61950000Y42110000D02*
X63160000Y42110000D01*
X61958000Y42150000D02*
X63160000Y42150000D01*
X61966000Y42190000D02*
X63160000Y42190000D01*
X61975000Y42230000D02*
X63160000Y42230000D01*
X61984000Y42270000D02*
X63160000Y42270000D01*
X61995000Y42310000D02*
X63160000Y42310000D01*
X62006000Y42350000D02*
X63160000Y42350000D01*
X62018000Y42390000D02*
X63160000Y42390000D01*
X62032000Y42430000D02*
X63160000Y42430000D01*
X62046000Y42471000D02*
X63160000Y42471000D01*
X62060000Y42511000D02*
X63160000Y42511000D01*
X62076000Y42551000D02*
X63160000Y42551000D01*
X62093000Y42591000D02*
X63160000Y42591000D01*
X62111000Y42631000D02*
X63160000Y42631000D01*
X62130000Y42671000D02*
X63160000Y42671000D01*
X62149000Y42711000D02*
X63160000Y42711000D01*
X62170000Y42751000D02*
X63160000Y42751000D01*
X62192000Y42791000D02*
X63160000Y42791000D01*
X62215000Y42831000D02*
X63160000Y42831000D01*
X62240000Y42871000D02*
X63160000Y42871000D01*
X62265000Y42911000D02*
X63160000Y42911000D01*
X62292000Y42951000D02*
X63160000Y42951000D01*
X62320000Y42991000D02*
X63160000Y42991000D01*
X62350000Y43031000D02*
X63160000Y43031000D01*
X62381000Y43071000D02*
X63160000Y43071000D01*
X62413000Y43111000D02*
X63160000Y43111000D01*
X62448000Y43151000D02*
X63160000Y43151000D01*
X62484000Y43191000D02*
X63160000Y43191000D01*
X62522000Y43231000D02*
X63160000Y43231000D01*
X62562000Y43271000D02*
X63160000Y43271000D01*
X62604000Y43311000D02*
X63160000Y43311000D01*
X62605000Y39680199D02*
X63005000Y39680199D01*
X62649000Y43351000D02*
X65351000Y43351000D01*
X62696000Y43391000D02*
X65304000Y43391000D01*
X62746000Y43431000D02*
X65254000Y43431000D01*
X62800000Y43471000D02*
X65200000Y43471000D01*
X62805000Y39480199D02*
X62805000Y39880199D01*
X62858000Y43511000D02*
X65142000Y43511000D01*
X62920000Y43551000D02*
X65080000Y43551000D01*
X62987000Y43591000D02*
X65013000Y43591000D01*
X63060000Y43631000D02*
X64940000Y43631000D01*
X63141000Y43671000D02*
X64859000Y43671000D01*
X63232000Y43711000D02*
X64768000Y43711000D01*
X63336000Y43751000D02*
X64664000Y43751000D01*
X63463000Y43791000D02*
X64537000Y43791000D01*
X63630000Y43831000D02*
X64370000Y43831000D01*
X64840000Y43311000D02*
X65396000Y43311000D01*
X64840000Y43271000D02*
X65438000Y43271000D01*
X64840000Y43231000D02*
X65478000Y43231000D01*
X64840000Y43191000D02*
X65516000Y43191000D01*
X64840000Y43151000D02*
X65552000Y43151000D01*
X64840000Y43111000D02*
X65587000Y43111000D01*
X64840000Y43071000D02*
X65619000Y43071000D01*
X64840000Y43031000D02*
X65650000Y43031000D01*
X64840000Y42991000D02*
X65680000Y42991000D01*
X64840000Y42951000D02*
X65708000Y42951000D01*
X64840000Y42911000D02*
X65735000Y42911000D01*
X64840000Y42871000D02*
X65760000Y42871000D01*
X64840000Y42831000D02*
X65785000Y42831000D01*
X64840000Y42791000D02*
X65808000Y42791000D01*
X64840000Y42751000D02*
X65830000Y42751000D01*
X64840000Y42711000D02*
X65851000Y42711000D01*
X64840000Y42671000D02*
X65870000Y42671000D01*
X64840000Y42631000D02*
X65889000Y42631000D01*
X64840000Y42591000D02*
X65907000Y42591000D01*
X64840000Y42551000D02*
X65924000Y42551000D01*
X64840000Y42511000D02*
X65940000Y42511000D01*
X64840000Y42471000D02*
X65954000Y42471000D01*
X64840000Y42430000D02*
X65968000Y42430000D01*
X64840000Y42390000D02*
X65982000Y42390000D01*
X64840000Y42350000D02*
X65994000Y42350000D01*
X64840000Y42310000D02*
X66005000Y42310000D01*
X64840000Y42270000D02*
X66016000Y42270000D01*
X64840000Y42230000D02*
X66025000Y42230000D01*
X64840000Y42190000D02*
X66034000Y42190000D01*
X64840000Y42150000D02*
X66042000Y42150000D01*
X64840000Y42110000D02*
X66050000Y42110000D01*
X64840000Y42070000D02*
X66056000Y42070000D01*
X64840000Y42030000D02*
X66062000Y42030000D01*
X64840000Y41990000D02*
X66067000Y41990000D01*
X64840000Y41950000D02*
X66071000Y41950000D01*
X64840000Y41910000D02*
X66074000Y41910000D01*
X64840000Y41870000D02*
X66077000Y41870000D01*
X64840000Y41830000D02*
X66079000Y41830000D01*
X64840000Y41790000D02*
X66080000Y41790000D01*
X64840000Y41750000D02*
X66080000Y41750000D01*
X66120000Y41750000D02*
G75*
G02*
X61880000Y41750000I-2120000J0D01*
G01*
X61880000Y41750000D02*
G75*
G02*
X66120000Y41750000I2120000J0D01*
G01*
%TO.C,TP24*%
X161500000Y-60000000D02*
G75*
G02*
X158500000Y-60000000I-1500000J0D01*
G01*
X158500000Y-60000000D02*
G75*
G02*
X161500000Y-60000000I1500000J0D01*
G01*
%TO.C,R32*%
X162772936Y-7265000D02*
X163227064Y-7265000D01*
X162772936Y-8735000D02*
X163227064Y-8735000D01*
%TO.C,R12*%
X162772936Y-24265000D02*
X163227064Y-24265000D01*
X162772936Y-25735000D02*
X163227064Y-25735000D01*
%TO.C,R22*%
X162772936Y21735000D02*
X163227064Y21735000D01*
X162772936Y20265000D02*
X163227064Y20265000D01*
%TO.C,J12*%
X144730000Y14500000D02*
X152350000Y14500000D01*
D14*
X144730000Y9950000D02*
X144730000Y15670000D01*
X152350000Y15670000D02*
X144730000Y15670000D01*
X152350000Y15670000D02*
X152350000Y9950000D01*
X152350000Y9950000D02*
X144730000Y9950000D01*
D13*
X152880000Y12500000D02*
X153480000Y13000000D01*
X153480000Y13000000D02*
X153480000Y12000000D01*
X153480000Y12000000D02*
X152880000Y12500000D01*
%TO.C,D10*%
X165315000Y960000D02*
X165315000Y-960000D01*
X165315000Y-960000D02*
X168000000Y-960000D01*
X168000000Y960000D02*
X165315000Y960000D01*
%TO.C,D17*%
X165315000Y2960000D02*
X165315000Y1040000D01*
X165315000Y1040000D02*
X168000000Y1040000D01*
X168000000Y2960000D02*
X165315000Y2960000D01*
%TO.C,R20*%
X162772936Y-14265000D02*
X163227064Y-14265000D01*
X162772936Y-15735000D02*
X163227064Y-15735000D01*
%TO.C,R3*%
X162772936Y16735000D02*
X163227064Y16735000D01*
X162772936Y15265000D02*
X163227064Y15265000D01*
%TO.C,TP23*%
X161500000Y-64000000D02*
G75*
G02*
X158500000Y-64000000I-1500000J0D01*
G01*
X158500000Y-64000000D02*
G75*
G02*
X161500000Y-64000000I1500000J0D01*
G01*
%TO.C,R17*%
X80265000Y-19227064D02*
X80265000Y-18772936D01*
X81735000Y-19227064D02*
X81735000Y-18772936D01*
%TO.C,R16*%
X162772936Y-38265000D02*
X163227064Y-38265000D01*
X162772936Y-39735000D02*
X163227064Y-39735000D01*
%TO.C,D23*%
X165315000Y9960000D02*
X165315000Y8040000D01*
X165315000Y8040000D02*
X168000000Y8040000D01*
X168000000Y9960000D02*
X165315000Y9960000D01*
%TO.C,TP4*%
X165500000Y-121000000D02*
G75*
G02*
X162500000Y-121000000I-1500000J0D01*
G01*
X162500000Y-121000000D02*
G75*
G02*
X165500000Y-121000000I1500000J0D01*
G01*
%TO.C,R35*%
X149265000Y19772936D02*
X149265000Y20227064D01*
X150735000Y19772936D02*
X150735000Y20227064D01*
%TO.C,TP13*%
X117500000Y-47000000D02*
G75*
G02*
X114500000Y-47000000I-1500000J0D01*
G01*
X114500000Y-47000000D02*
G75*
G02*
X117500000Y-47000000I1500000J0D01*
G01*
%TO.C,R19*%
X162772936Y2735000D02*
X163227064Y2735000D01*
X162772936Y1265000D02*
X163227064Y1265000D01*
%TO.C,R39*%
X114265000Y-5227064D02*
X114265000Y-4772936D01*
X115735000Y-5227064D02*
X115735000Y-4772936D01*
%TO.C,R33*%
X162772936Y-40265000D02*
X163227064Y-40265000D01*
X162772936Y-41735000D02*
X163227064Y-41735000D01*
%TO.C,TP14*%
X96500000Y-33000000D02*
G75*
G02*
X93500000Y-33000000I-1500000J0D01*
G01*
X93500000Y-33000000D02*
G75*
G02*
X96500000Y-33000000I1500000J0D01*
G01*
%TO.C,TP31*%
X165500000Y-143000000D02*
G75*
G02*
X162500000Y-143000000I-1500000J0D01*
G01*
X162500000Y-143000000D02*
G75*
G02*
X165500000Y-143000000I1500000J0D01*
G01*
%TO.C,R40*%
X162772936Y29735000D02*
X163227064Y29735000D01*
X162772936Y28265000D02*
X163227064Y28265000D01*
%TO.C,J6*%
X135880000Y37247500D02*
X135880000Y46487500D01*
X136710000Y39865500D02*
X137106000Y40261500D01*
X136998000Y39577500D02*
X137394000Y39973500D01*
X139607000Y42761500D02*
X140002000Y43157500D01*
X139895000Y42473500D02*
X140290000Y42869500D01*
X143200000Y46487500D02*
X135880000Y46487500D01*
X144993000Y43147500D02*
X145002000Y43157500D01*
X145280000Y42858500D02*
X145290000Y42869500D01*
X146120000Y46487500D02*
X143800000Y46487500D01*
X146120000Y45967500D02*
X135880000Y45967500D01*
X146120000Y44867500D02*
X135880000Y44867500D01*
X146120000Y37247500D02*
X135880000Y37247500D01*
X146120000Y37247500D02*
X146120000Y46487500D01*
X141720000Y39817500D02*
G75*
G02*
X141719585Y42917023I1780001J1550000D01*
G01*
X141950000Y43147500D02*
G75*
G02*
X145049523Y43147915I1550000J-1780000D01*
G01*
X145050000Y39587500D02*
G75*
G02*
X141950477Y39587085I-1550000J1780001D01*
G01*
X145280000Y42917500D02*
G75*
G02*
X145280415Y39817977I-1780000J-1550000D01*
G01*
X140860000Y41367500D02*
G75*
G02*
X136140000Y41367500I-2360000J0D01*
G01*
X136140000Y41367500D02*
G75*
G02*
X140860000Y41367500I2360000J0D01*
G01*
X143500000Y46487500D02*
X143060000Y47097500D01*
X143940000Y47097500D01*
X143500000Y46487500D01*
G36*
X143500000Y46487500D02*
G01*
X143060000Y47097500D01*
X143940000Y47097500D01*
X143500000Y46487500D01*
G37*
%TO.C,TP2*%
X165500000Y-147000000D02*
G75*
G02*
X162500000Y-147000000I-1500000J0D01*
G01*
X162500000Y-147000000D02*
G75*
G02*
X165500000Y-147000000I1500000J0D01*
G01*
%TO.C,D14*%
X165315000Y-16040000D02*
X165315000Y-17960000D01*
X165315000Y-17960000D02*
X168000000Y-17960000D01*
X168000000Y-16040000D02*
X165315000Y-16040000D01*
%TO.C,D2*%
X165377500Y32960000D02*
X165377500Y31040000D01*
X165377500Y31040000D02*
X168062500Y31040000D01*
X168062500Y32960000D02*
X165377500Y32960000D01*
%TO.C,D12*%
X165315000Y-24040000D02*
X165315000Y-25960000D01*
X165315000Y-25960000D02*
X168000000Y-25960000D01*
X168000000Y-24040000D02*
X165315000Y-24040000D01*
%TO.C,R36*%
X162772936Y27735000D02*
X163227064Y27735000D01*
X162772936Y26265000D02*
X163227064Y26265000D01*
%TO.C,D21*%
X165315000Y-40040000D02*
X165315000Y-41960000D01*
X165315000Y-41960000D02*
X168000000Y-41960000D01*
X168000000Y-40040000D02*
X165315000Y-40040000D01*
%TO.C,TP25*%
X165500000Y-139000000D02*
G75*
G02*
X162500000Y-139000000I-1500000J0D01*
G01*
X162500000Y-139000000D02*
G75*
G02*
X165500000Y-139000000I1500000J0D01*
G01*
%TO.C,J1*%
X128730000Y14500000D02*
X138890000Y14500000D01*
D14*
X128730000Y9950000D02*
X128730000Y15670000D01*
X138890000Y15670000D02*
X128730000Y15670000D01*
X138890000Y15670000D02*
X138890000Y9950000D01*
X138890000Y9950000D02*
X128730000Y9950000D01*
D13*
X139420000Y12500000D02*
X140020000Y13000000D01*
X140020000Y13000000D02*
X140020000Y12000000D01*
X140020000Y12000000D02*
X139420000Y12500000D01*
%TO.C,R2*%
X162772936Y32735000D02*
X163227064Y32735000D01*
X162772936Y31265000D02*
X163227064Y31265000D01*
%TO.C,D1*%
X165377500Y34960000D02*
X165377500Y33040000D01*
X165377500Y33040000D02*
X168062500Y33040000D01*
X168062500Y34960000D02*
X165377500Y34960000D01*
%TO.C,R41*%
X134265000Y19772936D02*
X134265000Y20227064D01*
X135735000Y19772936D02*
X135735000Y20227064D01*
%TO.C,R8*%
X162772936Y-21265000D02*
X163227064Y-21265000D01*
X162772936Y-22735000D02*
X163227064Y-22735000D01*
%TO.C,D13*%
X165315000Y19960000D02*
X165315000Y18040000D01*
X165315000Y18040000D02*
X168000000Y18040000D01*
X168000000Y19960000D02*
X165315000Y19960000D01*
%TO.C,TP7*%
X161500000Y-79000000D02*
G75*
G02*
X158500000Y-79000000I-1500000J0D01*
G01*
X158500000Y-79000000D02*
G75*
G02*
X161500000Y-79000000I1500000J0D01*
G01*
%TO.C,D8*%
X165315000Y-21040000D02*
X165315000Y-22960000D01*
X165315000Y-22960000D02*
X168000000Y-22960000D01*
X168000000Y-21040000D02*
X165315000Y-21040000D01*
%TO.C,TP19*%
X153500000Y-29650000D02*
G75*
G02*
X150500000Y-29650000I-1500000J0D01*
G01*
X150500000Y-29650000D02*
G75*
G02*
X153500000Y-29650000I1500000J0D01*
G01*
%TO.C,TP15*%
X96500000Y-37000000D02*
G75*
G02*
X93500000Y-37000000I-1500000J0D01*
G01*
X93500000Y-37000000D02*
G75*
G02*
X96500000Y-37000000I1500000J0D01*
G01*
%TO.C,TP8*%
X117500000Y-35000000D02*
G75*
G02*
X114500000Y-35000000I-1500000J0D01*
G01*
X114500000Y-35000000D02*
G75*
G02*
X117500000Y-35000000I1500000J0D01*
G01*
%TO.C,TP10*%
X96500000Y-29000000D02*
G75*
G02*
X93500000Y-29000000I-1500000J0D01*
G01*
X93500000Y-29000000D02*
G75*
G02*
X96500000Y-29000000I1500000J0D01*
G01*
%TO.C,TP6*%
X149500000Y-83000000D02*
G75*
G02*
X146500000Y-83000000I-1500000J0D01*
G01*
X146500000Y-83000000D02*
G75*
G02*
X149500000Y-83000000I1500000J0D01*
G01*
%TO.C,D15*%
X165315000Y-34040000D02*
X165315000Y-35960000D01*
X165315000Y-35960000D02*
X168000000Y-35960000D01*
X168000000Y-34040000D02*
X165315000Y-34040000D01*
%TO.C,J8*%
X108650000Y27000000D02*
X118810000Y27000000D01*
D14*
X108650000Y22450000D02*
X108650000Y28170000D01*
X118810000Y28170000D02*
X108650000Y28170000D01*
X118810000Y28170000D02*
X118810000Y22450000D01*
X118810000Y22450000D02*
X108650000Y22450000D01*
D13*
X119340000Y25000000D02*
X119940000Y25500000D01*
X119940000Y25500000D02*
X119940000Y24500000D01*
X119940000Y24500000D02*
X119340000Y25000000D01*
%TO.C,J14*%
X128690000Y27000000D02*
X138850000Y27000000D01*
D14*
X128690000Y22450000D02*
X128690000Y28170000D01*
X138850000Y28170000D02*
X128690000Y28170000D01*
X138850000Y28170000D02*
X138850000Y22450000D01*
X138850000Y22450000D02*
X128690000Y22450000D01*
D13*
X139380000Y25000000D02*
X139980000Y25500000D01*
X139980000Y25500000D02*
X139980000Y24500000D01*
X139980000Y24500000D02*
X139380000Y25000000D01*
%TO.C,D20*%
X165315000Y21960000D02*
X165315000Y20040000D01*
X165315000Y20040000D02*
X168000000Y20040000D01*
X168000000Y21960000D02*
X165315000Y21960000D01*
%TO.C,TP30*%
X165500000Y-152000000D02*
G75*
G02*
X162500000Y-152000000I-1500000J0D01*
G01*
X162500000Y-152000000D02*
G75*
G02*
X165500000Y-152000000I1500000J0D01*
G01*
%TO.C,D4*%
X165315000Y14960000D02*
X165315000Y13040000D01*
X165315000Y13040000D02*
X168000000Y13040000D01*
X168000000Y14960000D02*
X165315000Y14960000D01*
%TO.C,U1*%
D10*
X91090000Y44580000D02*
X111410000Y44580000D01*
X111410000Y34420000D01*
X91090000Y34420000D01*
X91090000Y44580000D01*
X91090000Y40770000D02*
G75*
G02*
X91090000Y38230000I0J-1270000D01*
G01*
D13*
%TO.C,R23*%
X96765000Y28727064D02*
X96765000Y28272936D01*
X98235000Y28727064D02*
X98235000Y28272936D01*
%TO.C,TP26*%
X165500000Y-117000000D02*
G75*
G02*
X162500000Y-117000000I-1500000J0D01*
G01*
X162500000Y-117000000D02*
G75*
G02*
X165500000Y-117000000I1500000J0D01*
G01*
%TO.C,D22*%
X165315000Y-9040000D02*
X165315000Y-10960000D01*
X165315000Y-10960000D02*
X168000000Y-10960000D01*
X168000000Y-9040000D02*
X165315000Y-9040000D01*
%TO.C,R6*%
X162685436Y-4265000D02*
X163139564Y-4265000D01*
X162685436Y-5735000D02*
X163139564Y-5735000D01*
%TO.C,D27*%
X165315000Y7960000D02*
X165315000Y6040000D01*
X165315000Y6040000D02*
X168000000Y6040000D01*
X168000000Y7960000D02*
X165315000Y7960000D01*
%TO.C,R29*%
X114265000Y19772936D02*
X114265000Y20227064D01*
X115735000Y19772936D02*
X115735000Y20227064D01*
%TO.C,TP29*%
X165500000Y-129900000D02*
G75*
G02*
X162500000Y-129900000I-1500000J0D01*
G01*
X162500000Y-129900000D02*
G75*
G02*
X165500000Y-129900000I1500000J0D01*
G01*
%TO.C,D5*%
X165315000Y-2040000D02*
X165315000Y-3960000D01*
X165315000Y-3960000D02*
X168000000Y-3960000D01*
X168000000Y-2040000D02*
X165315000Y-2040000D01*
%TO.C,R28*%
X162772936Y-9265000D02*
X163227064Y-9265000D01*
X162772936Y-10735000D02*
X163227064Y-10735000D01*
%TO.C,R13*%
X162772936Y19735000D02*
X163227064Y19735000D01*
X162772936Y18265000D02*
X163227064Y18265000D01*
%TO.C,TP9*%
X161500000Y-83000000D02*
G75*
G02*
X158500000Y-83000000I-1500000J0D01*
G01*
X158500000Y-83000000D02*
G75*
G02*
X161500000Y-83000000I1500000J0D01*
G01*
%TO.C,TP17*%
X153500000Y-39000000D02*
G75*
G02*
X150500000Y-39000000I-1500000J0D01*
G01*
X150500000Y-39000000D02*
G75*
G02*
X153500000Y-39000000I1500000J0D01*
G01*
%TO.C,R34*%
X162772936Y11735000D02*
X163227064Y11735000D01*
X162772936Y10265000D02*
X163227064Y10265000D01*
%TO.C,R1*%
X162772936Y34735000D02*
X163227064Y34735000D01*
X162772936Y33265000D02*
X163227064Y33265000D01*
%TO.C,D25*%
X165315000Y11960000D02*
X165315000Y10040000D01*
X165315000Y10040000D02*
X168000000Y10040000D01*
X168000000Y11960000D02*
X165315000Y11960000D01*
%TO.C,R9*%
X162772936Y37735000D02*
X163227064Y37735000D01*
X162772936Y36265000D02*
X163227064Y36265000D01*
%TO.C,TP32*%
X165500000Y-156000000D02*
G75*
G02*
X162500000Y-156000000I-1500000J0D01*
G01*
X162500000Y-156000000D02*
G75*
G02*
X165500000Y-156000000I1500000J0D01*
G01*
%TO.C,R45*%
X162685436Y-29265000D02*
X163139564Y-29265000D01*
X162685436Y-30735000D02*
X163139564Y-30735000D01*
%TO.C,D9*%
X165377500Y37960000D02*
X165377500Y36040000D01*
X165377500Y36040000D02*
X168062500Y36040000D01*
X168062500Y37960000D02*
X165377500Y37960000D01*
%TO.C,D18*%
X165315000Y-14040000D02*
X165315000Y-15960000D01*
X165315000Y-15960000D02*
X168000000Y-15960000D01*
X168000000Y-14040000D02*
X165315000Y-14040000D01*
%TO.C,TP3*%
X165500000Y-160000000D02*
G75*
G02*
X162500000Y-160000000I-1500000J0D01*
G01*
X162500000Y-160000000D02*
G75*
G02*
X165500000Y-160000000I1500000J0D01*
G01*
%TO.C,J3*%
X66190000Y-124500000D02*
X66190000Y-73400000D01*
X67250000Y-72340000D02*
X77750000Y-72340000D01*
X68490000Y-82547048D02*
X68490000Y-115352952D01*
X74561744Y-80083530D02*
X69861744Y-80912267D01*
X74561744Y-117816470D02*
X69861744Y-116987733D01*
X76510000Y-81718311D02*
X76510000Y-116181689D01*
X77750000Y-125560000D02*
X67250000Y-125560000D01*
X78810000Y-73400000D02*
X78810000Y-124500000D01*
X79271325Y-115570000D02*
X79704338Y-115320000D01*
X79704338Y-115320000D02*
X79704338Y-115820000D01*
X79704338Y-115820000D02*
X79271325Y-115570000D01*
X66190000Y-73400000D02*
G75*
G02*
X67250000Y-72340000I1060001J-1D01*
G01*
X67250000Y-125560000D02*
G75*
G02*
X66190000Y-124500000I0J1060000D01*
G01*
X68490000Y-82547048D02*
G75*
G02*
X69861744Y-80912267I1659999J1D01*
G01*
X69861744Y-116987733D02*
G75*
G02*
X68490000Y-115352952I288255J1634780D01*
G01*
X74561744Y-80083530D02*
G75*
G02*
X76510000Y-81718311I288256J-1634781D01*
G01*
X76510000Y-116181689D02*
G75*
G02*
X74561744Y-117816471I-1660000J-1D01*
G01*
X77750000Y-72340000D02*
G75*
G02*
X78810000Y-73400000I-1J-1060001D01*
G01*
X78810000Y-124500000D02*
G75*
G02*
X77750000Y-125560000I-1060000J0D01*
G01*
%TO.C,D24*%
X165315000Y-7040000D02*
X165315000Y-8960000D01*
X165315000Y-8960000D02*
X168000000Y-8960000D01*
X168000000Y-7040000D02*
X165315000Y-7040000D01*
%TO.C,R25*%
X160227064Y-49265000D02*
X159772936Y-49265000D01*
X160227064Y-50735000D02*
X159772936Y-50735000D01*
%TO.C,R24*%
X133265000Y38140436D02*
X133265000Y38594564D01*
X134735000Y38140436D02*
X134735000Y38594564D01*
%TO.C,R5*%
X162685436Y-2265000D02*
X163139564Y-2265000D01*
X162685436Y-3735000D02*
X163139564Y-3735000D01*
%TO.C,R30*%
X162772936Y9735000D02*
X163227064Y9735000D01*
X162772936Y8265000D02*
X163227064Y8265000D01*
%TO.C,R11*%
X162772936Y-36265000D02*
X163227064Y-36265000D01*
X162772936Y-37735000D02*
X163227064Y-37735000D01*
%TO.C,U3*%
X104670000Y-31615000D02*
X102470000Y-31615000D01*
X104670000Y-31615000D02*
X106870000Y-31615000D01*
X104670000Y-38385000D02*
X102470000Y-38385000D01*
X104670000Y-38385000D02*
X106870000Y-38385000D01*
X100810000Y-32075000D02*
X100480000Y-32315000D01*
X100480000Y-31835000D01*
X100810000Y-32075000D01*
G36*
X100810000Y-32075000D02*
G01*
X100480000Y-32315000D01*
X100480000Y-31835000D01*
X100810000Y-32075000D01*
G37*
%TO.C,TP11*%
X117500000Y-39000000D02*
G75*
G02*
X114500000Y-39000000I-1500000J0D01*
G01*
X114500000Y-39000000D02*
G75*
G02*
X117500000Y-39000000I1500000J0D01*
G01*
%TO.C,R7*%
X162772936Y-19265000D02*
X163227064Y-19265000D01*
X162772936Y-20735000D02*
X163227064Y-20735000D01*
%TO.C,C1*%
X53670000Y41790000D02*
X54910000Y41790000D01*
X53670000Y41750000D02*
X54910000Y41750000D01*
X53671000Y41830000D02*
X54910000Y41830000D01*
X53673000Y41870000D02*
X54910000Y41870000D01*
X53676000Y41910000D02*
X54910000Y41910000D01*
X53679000Y41950000D02*
X54910000Y41950000D01*
X53683000Y41990000D02*
X54910000Y41990000D01*
X53688000Y42030000D02*
X54910000Y42030000D01*
X53694000Y42070000D02*
X54910000Y42070000D01*
X53700000Y42110000D02*
X54910000Y42110000D01*
X53708000Y42150000D02*
X54910000Y42150000D01*
X53716000Y42190000D02*
X54910000Y42190000D01*
X53725000Y42230000D02*
X54910000Y42230000D01*
X53734000Y42270000D02*
X54910000Y42270000D01*
X53745000Y42310000D02*
X54910000Y42310000D01*
X53756000Y42350000D02*
X54910000Y42350000D01*
X53768000Y42390000D02*
X54910000Y42390000D01*
X53782000Y42430000D02*
X54910000Y42430000D01*
X53796000Y42471000D02*
X54910000Y42471000D01*
X53810000Y42511000D02*
X54910000Y42511000D01*
X53826000Y42551000D02*
X54910000Y42551000D01*
X53843000Y42591000D02*
X54910000Y42591000D01*
X53861000Y42631000D02*
X54910000Y42631000D01*
X53880000Y42671000D02*
X54910000Y42671000D01*
X53899000Y42711000D02*
X54910000Y42711000D01*
X53920000Y42751000D02*
X54910000Y42751000D01*
X53942000Y42791000D02*
X54910000Y42791000D01*
X53965000Y42831000D02*
X54910000Y42831000D01*
X53990000Y42871000D02*
X54910000Y42871000D01*
X54015000Y42911000D02*
X54910000Y42911000D01*
X54042000Y42951000D02*
X54910000Y42951000D01*
X54070000Y42991000D02*
X54910000Y42991000D01*
X54100000Y43031000D02*
X54910000Y43031000D01*
X54131000Y43071000D02*
X54910000Y43071000D01*
X54163000Y43111000D02*
X54910000Y43111000D01*
X54198000Y43151000D02*
X54910000Y43151000D01*
X54234000Y43191000D02*
X54910000Y43191000D01*
X54272000Y43231000D02*
X54910000Y43231000D01*
X54312000Y43271000D02*
X54910000Y43271000D01*
X54354000Y43311000D02*
X54910000Y43311000D01*
X54355000Y39680199D02*
X54755000Y39680199D01*
X54399000Y43351000D02*
X57101000Y43351000D01*
X54446000Y43391000D02*
X57054000Y43391000D01*
X54496000Y43431000D02*
X57004000Y43431000D01*
X54550000Y43471000D02*
X56950000Y43471000D01*
X54555000Y39480199D02*
X54555000Y39880199D01*
X54608000Y43511000D02*
X56892000Y43511000D01*
X54670000Y43551000D02*
X56830000Y43551000D01*
X54737000Y43591000D02*
X56763000Y43591000D01*
X54810000Y43631000D02*
X56690000Y43631000D01*
X54891000Y43671000D02*
X56609000Y43671000D01*
X54982000Y43711000D02*
X56518000Y43711000D01*
X55086000Y43751000D02*
X56414000Y43751000D01*
X55213000Y43791000D02*
X56287000Y43791000D01*
X55380000Y43831000D02*
X56120000Y43831000D01*
X56590000Y43311000D02*
X57146000Y43311000D01*
X56590000Y43271000D02*
X57188000Y43271000D01*
X56590000Y43231000D02*
X57228000Y43231000D01*
X56590000Y43191000D02*
X57266000Y43191000D01*
X56590000Y43151000D02*
X57302000Y43151000D01*
X56590000Y43111000D02*
X57337000Y43111000D01*
X56590000Y43071000D02*
X57369000Y43071000D01*
X56590000Y43031000D02*
X57400000Y43031000D01*
X56590000Y42991000D02*
X57430000Y42991000D01*
X56590000Y42951000D02*
X57458000Y42951000D01*
X56590000Y42911000D02*
X57485000Y42911000D01*
X56590000Y42871000D02*
X57510000Y42871000D01*
X56590000Y42831000D02*
X57535000Y42831000D01*
X56590000Y42791000D02*
X57558000Y42791000D01*
X56590000Y42751000D02*
X57580000Y42751000D01*
X56590000Y42711000D02*
X57601000Y42711000D01*
X56590000Y42671000D02*
X57620000Y42671000D01*
X56590000Y42631000D02*
X57639000Y42631000D01*
X56590000Y42591000D02*
X57657000Y42591000D01*
X56590000Y42551000D02*
X57674000Y42551000D01*
X56590000Y42511000D02*
X57690000Y42511000D01*
X56590000Y42471000D02*
X57704000Y42471000D01*
X56590000Y42430000D02*
X57718000Y42430000D01*
X56590000Y42390000D02*
X57732000Y42390000D01*
X56590000Y42350000D02*
X57744000Y42350000D01*
X56590000Y42310000D02*
X57755000Y42310000D01*
X56590000Y42270000D02*
X57766000Y42270000D01*
X56590000Y42230000D02*
X57775000Y42230000D01*
X56590000Y42190000D02*
X57784000Y42190000D01*
X56590000Y42150000D02*
X57792000Y42150000D01*
X56590000Y42110000D02*
X57800000Y42110000D01*
X56590000Y42070000D02*
X57806000Y42070000D01*
X56590000Y42030000D02*
X57812000Y42030000D01*
X56590000Y41990000D02*
X57817000Y41990000D01*
X56590000Y41950000D02*
X57821000Y41950000D01*
X56590000Y41910000D02*
X57824000Y41910000D01*
X56590000Y41870000D02*
X57827000Y41870000D01*
X56590000Y41830000D02*
X57829000Y41830000D01*
X56590000Y41790000D02*
X57830000Y41790000D01*
X56590000Y41750000D02*
X57830000Y41750000D01*
X57870000Y41750000D02*
G75*
G02*
X53630000Y41750000I-2120000J0D01*
G01*
X53630000Y41750000D02*
G75*
G02*
X57870000Y41750000I2120000J0D01*
G01*
%TO.C,TP18*%
X153500000Y-25000000D02*
G75*
G02*
X150500000Y-25000000I-1500000J0D01*
G01*
X150500000Y-25000000D02*
G75*
G02*
X153500000Y-25000000I1500000J0D01*
G01*
%TO.C,J5*%
X114880000Y37247500D02*
X114880000Y46487500D01*
X115710000Y39865500D02*
X116106000Y40261500D01*
X115998000Y39577500D02*
X116394000Y39973500D01*
X118607000Y42761500D02*
X119002000Y43157500D01*
X118895000Y42473500D02*
X119290000Y42869500D01*
X122200000Y46487500D02*
X114880000Y46487500D01*
X123993000Y43147500D02*
X124002000Y43157500D01*
X124280000Y42858500D02*
X124290000Y42869500D01*
X125120000Y46487500D02*
X122800000Y46487500D01*
X125120000Y45967500D02*
X114880000Y45967500D01*
X125120000Y44867500D02*
X114880000Y44867500D01*
X125120000Y37247500D02*
X114880000Y37247500D01*
X125120000Y37247500D02*
X125120000Y46487500D01*
X120720000Y39817500D02*
G75*
G02*
X120719585Y42917023I1780001J1550000D01*
G01*
X120950000Y43147500D02*
G75*
G02*
X124049523Y43147915I1550000J-1780000D01*
G01*
X124050000Y39587500D02*
G75*
G02*
X120950477Y39587085I-1550000J1780001D01*
G01*
X124280000Y42917500D02*
G75*
G02*
X124280415Y39817977I-1780000J-1550000D01*
G01*
X119860000Y41367500D02*
G75*
G02*
X115140000Y41367500I-2360000J0D01*
G01*
X115140000Y41367500D02*
G75*
G02*
X119860000Y41367500I2360000J0D01*
G01*
X122500000Y46487500D02*
X122060000Y47097500D01*
X122940000Y47097500D01*
X122500000Y46487500D01*
G36*
X122500000Y46487500D02*
G01*
X122060000Y47097500D01*
X122940000Y47097500D01*
X122500000Y46487500D01*
G37*
%TO.C,J7*%
X71880000Y37247500D02*
X71880000Y46487500D01*
X72710000Y39865500D02*
X73106000Y40261500D01*
X72998000Y39577500D02*
X73394000Y39973500D01*
X75607000Y42761500D02*
X76002000Y43157500D01*
X75895000Y42473500D02*
X76290000Y42869500D01*
X79200000Y46487500D02*
X71880000Y46487500D01*
X80993000Y43147500D02*
X81002000Y43157500D01*
X81280000Y42858500D02*
X81290000Y42869500D01*
X82120000Y46487500D02*
X79800000Y46487500D01*
X82120000Y45967500D02*
X71880000Y45967500D01*
X82120000Y44867500D02*
X71880000Y44867500D01*
X82120000Y37247500D02*
X71880000Y37247500D01*
X82120000Y37247500D02*
X82120000Y46487500D01*
X77720000Y39817500D02*
G75*
G02*
X77719585Y42917023I1780001J1550000D01*
G01*
X77950000Y43147500D02*
G75*
G02*
X81049523Y43147915I1550000J-1780000D01*
G01*
X81050000Y39587500D02*
G75*
G02*
X77950477Y39587085I-1550000J1780001D01*
G01*
X81280000Y42917500D02*
G75*
G02*
X81280415Y39817977I-1780000J-1550000D01*
G01*
X76860000Y41367500D02*
G75*
G02*
X72140000Y41367500I-2360000J0D01*
G01*
X72140000Y41367500D02*
G75*
G02*
X76860000Y41367500I2360000J0D01*
G01*
X79500000Y46487500D02*
X79060000Y47097500D01*
X79940000Y47097500D01*
X79500000Y46487500D01*
G36*
X79500000Y46487500D02*
G01*
X79060000Y47097500D01*
X79940000Y47097500D01*
X79500000Y46487500D01*
G37*
%TO.C,U4*%
X57075000Y34270000D02*
X57345000Y34270000D01*
X57075000Y27850000D02*
X57075000Y34270000D01*
X63975000Y34270000D02*
X63705000Y34270000D01*
X63975000Y27850000D02*
X63975000Y34270000D01*
X64135000Y35660000D02*
X63665000Y36000000D01*
X64135000Y36340000D01*
X64135000Y35660000D01*
G36*
X64135000Y35660000D02*
G01*
X63665000Y36000000D01*
X64135000Y36340000D01*
X64135000Y35660000D01*
G37*
%TO.C,D3*%
X165315000Y16960000D02*
X165315000Y15040000D01*
X165315000Y15040000D02*
X168000000Y15040000D01*
X168000000Y16960000D02*
X165315000Y16960000D01*
%TO.C,R37*%
X149265000Y6772936D02*
X149265000Y7227064D01*
X150735000Y6772936D02*
X150735000Y7227064D01*
%TO.C,TP27*%
X165500000Y-126000000D02*
G75*
G02*
X162500000Y-126000000I-1500000J0D01*
G01*
X162500000Y-126000000D02*
G75*
G02*
X165500000Y-126000000I1500000J0D01*
G01*
%TD*%
M02*
