%TF.GenerationSoftware,KiCad,Pcbnew,9.0.0*%
%TF.CreationDate,2025-03-11T18:36:24-04:00*%
%TF.ProjectId,pnp_controller,706e705f-636f-46e7-9472-6f6c6c65722e,rev?*%
%TF.SameCoordinates,Original*%
%TF.FileFunction,Paste,Top*%
%TF.FilePolarity,Positive*%
%FSLAX46Y46*%
G04 Gerber Fmt 4.6, Leading zero omitted, Abs format (unit mm)*
G04 Created by KiCad (PCBNEW 9.0.0) date 2025-03-11 18:36:24*
%MOMM*%
%LPD*%
G01*
G04 APERTURE LIST*
G04 Aperture macros list*
%AMRoundRect*
0 Rectangle with rounded corners*
0 $1 Rounding radius*
0 $2 $3 $4 $5 $6 $7 $8 $9 X,Y pos of 4 corners*
0 Add a 4 corners polygon primitive as box body*
4,1,4,$2,$3,$4,$5,$6,$7,$8,$9,$2,$3,0*
0 Add four circle primitives for the rounded corners*
1,1,$1+$1,$2,$3*
1,1,$1+$1,$4,$5*
1,1,$1+$1,$6,$7*
1,1,$1+$1,$8,$9*
0 Add four rect primitives between the rounded corners*
20,1,$1+$1,$2,$3,$4,$5,0*
20,1,$1+$1,$4,$5,$6,$7,0*
20,1,$1+$1,$6,$7,$8,$9,0*
20,1,$1+$1,$8,$9,$2,$3,0*%
G04 Aperture macros list end*
%ADD10RoundRect,0.250000X0.450000X-0.262500X0.450000X0.262500X-0.450000X0.262500X-0.450000X-0.262500X0*%
%ADD11RoundRect,0.250000X-0.262500X-0.450000X0.262500X-0.450000X0.262500X0.450000X-0.262500X0.450000X0*%
%ADD12RoundRect,0.243750X-0.243750X-0.456250X0.243750X-0.456250X0.243750X0.456250X-0.243750X0.456250X0*%
%ADD13RoundRect,0.100000X0.100000X-0.637500X0.100000X0.637500X-0.100000X0.637500X-0.100000X-0.637500X0*%
%ADD14RoundRect,0.100000X0.637500X0.100000X-0.637500X0.100000X-0.637500X-0.100000X0.637500X-0.100000X0*%
%ADD15R,1.270000X1.905000*%
%ADD16RoundRect,0.250000X-0.450000X0.262500X-0.450000X-0.262500X0.450000X-0.262500X0.450000X0.262500X0*%
%ADD17RoundRect,0.250000X0.262500X0.450000X-0.262500X0.450000X-0.262500X-0.450000X0.262500X-0.450000X0*%
%ADD18RoundRect,0.100000X-0.637500X-0.100000X0.637500X-0.100000X0.637500X0.100000X-0.637500X0.100000X0*%
%ADD19RoundRect,0.250000X-0.350000X0.850000X-0.350000X-0.850000X0.350000X-0.850000X0.350000X0.850000X0*%
%ADD20RoundRect,0.250000X-1.125000X1.275000X-1.125000X-1.275000X1.125000X-1.275000X1.125000X1.275000X0*%
G04 APERTURE END LIST*
D10*
%TO.C,R31*%
X115000000Y7912500D03*
X115000000Y6087500D03*
%TD*%
%TO.C,R26*%
X135000000Y7912500D03*
X135000000Y6087500D03*
%TD*%
%TO.C,R43*%
X135000000Y-4087500D03*
X135000000Y-5912500D03*
%TD*%
D11*
%TO.C,R4*%
X162087500Y14000000D03*
X163912500Y14000000D03*
%TD*%
D12*
%TO.C,D7*%
X166062500Y-20000000D03*
X167937500Y-20000000D03*
%TD*%
%TO.C,D16*%
X166062500Y-39000000D03*
X167937500Y-39000000D03*
%TD*%
%TO.C,D11*%
X166062500Y-37000000D03*
X167937500Y-37000000D03*
%TD*%
D13*
%TO.C,U5*%
X146075000Y-5612500D03*
X146725000Y-5612500D03*
X147375000Y-5612500D03*
X148025000Y-5612500D03*
X148675000Y-5612500D03*
X149325000Y-5612500D03*
X149975000Y-5612500D03*
X150625000Y-5612500D03*
X151275000Y-5612500D03*
X151925000Y-5612500D03*
X151925000Y112500D03*
X151275000Y112500D03*
X150625000Y112500D03*
X149975000Y112500D03*
X149325000Y112500D03*
X148675000Y112500D03*
X148025000Y112500D03*
X147375000Y112500D03*
X146725000Y112500D03*
X146075000Y112500D03*
%TD*%
D12*
%TO.C,D26*%
X166125000Y27000000D03*
X168000000Y27000000D03*
%TD*%
%TO.C,D6*%
X166062500Y-5000000D03*
X167937500Y-5000000D03*
%TD*%
D11*
%TO.C,R38*%
X162087500Y7000000D03*
X163912500Y7000000D03*
%TD*%
D12*
%TO.C,D19*%
X166125000Y39000000D03*
X168000000Y39000000D03*
%TD*%
%TO.C,D28*%
X166125000Y29000000D03*
X168000000Y29000000D03*
%TD*%
D11*
%TO.C,R21*%
X162087500Y39000000D03*
X163912500Y39000000D03*
%TD*%
D14*
%TO.C,U2*%
X119612500Y-71675000D03*
X119612500Y-71025000D03*
X119612500Y-70375000D03*
X119612500Y-69725000D03*
X119612500Y-69075000D03*
X119612500Y-68425000D03*
X119612500Y-67775000D03*
X119612500Y-67125000D03*
X119612500Y-66475000D03*
X119612500Y-65825000D03*
X113887500Y-65825000D03*
X113887500Y-66475000D03*
X113887500Y-67125000D03*
X113887500Y-67775000D03*
X113887500Y-68425000D03*
X113887500Y-69075000D03*
X113887500Y-69725000D03*
X113887500Y-70375000D03*
X113887500Y-71025000D03*
X113887500Y-71675000D03*
%TD*%
D11*
%TO.C,R10*%
X162087500Y0D03*
X163912500Y0D03*
%TD*%
%TO.C,R14*%
X162087500Y-17000000D03*
X163912500Y-17000000D03*
%TD*%
%TO.C,R15*%
X162087500Y-35000000D03*
X163912500Y-35000000D03*
%TD*%
D12*
%TO.C,D30*%
X166062500Y-30000000D03*
X167937500Y-30000000D03*
%TD*%
D11*
%TO.C,R32*%
X162087500Y-8000000D03*
X163912500Y-8000000D03*
%TD*%
%TO.C,R12*%
X162087500Y-25000000D03*
X163912500Y-25000000D03*
%TD*%
%TO.C,R22*%
X162087500Y21000000D03*
X163912500Y21000000D03*
%TD*%
D12*
%TO.C,D10*%
X166062500Y0D03*
X167937500Y0D03*
%TD*%
%TO.C,D17*%
X166062500Y2000000D03*
X167937500Y2000000D03*
%TD*%
D11*
%TO.C,R20*%
X162087500Y-15000000D03*
X163912500Y-15000000D03*
%TD*%
%TO.C,R3*%
X162087500Y16000000D03*
X163912500Y16000000D03*
%TD*%
D10*
%TO.C,R17*%
X81000000Y-19912500D03*
X81000000Y-18087500D03*
%TD*%
D11*
%TO.C,R16*%
X162087500Y-39000000D03*
X163912500Y-39000000D03*
%TD*%
D12*
%TO.C,D23*%
X166062500Y9000000D03*
X167937500Y9000000D03*
%TD*%
D10*
%TO.C,R35*%
X150000000Y19087500D03*
X150000000Y20912500D03*
%TD*%
D11*
%TO.C,R19*%
X162087500Y2000000D03*
X163912500Y2000000D03*
%TD*%
D10*
%TO.C,R39*%
X115000000Y-5912500D03*
X115000000Y-4087500D03*
%TD*%
D11*
%TO.C,R33*%
X162087500Y-41000000D03*
X163912500Y-41000000D03*
%TD*%
%TO.C,R40*%
X162087500Y29000000D03*
X163912500Y29000000D03*
%TD*%
D12*
%TO.C,D14*%
X166062500Y-17000000D03*
X167937500Y-17000000D03*
%TD*%
%TO.C,D2*%
X166125000Y32000000D03*
X168000000Y32000000D03*
%TD*%
%TO.C,D12*%
X166062500Y-25000000D03*
X167937500Y-25000000D03*
%TD*%
D11*
%TO.C,R36*%
X162087500Y27000000D03*
X163912500Y27000000D03*
%TD*%
D12*
%TO.C,D21*%
X166062500Y-41000000D03*
X167937500Y-41000000D03*
%TD*%
D11*
%TO.C,R2*%
X162087500Y32000000D03*
X163912500Y32000000D03*
%TD*%
D12*
%TO.C,D1*%
X166125000Y34000000D03*
X168000000Y34000000D03*
%TD*%
D10*
%TO.C,R41*%
X135000000Y19087500D03*
X135000000Y20912500D03*
%TD*%
D11*
%TO.C,R8*%
X162087500Y-22000000D03*
X163912500Y-22000000D03*
%TD*%
D12*
%TO.C,D13*%
X166062500Y19000000D03*
X167937500Y19000000D03*
%TD*%
%TO.C,D8*%
X166062500Y-22000000D03*
X167937500Y-22000000D03*
%TD*%
%TO.C,D15*%
X166062500Y-35000000D03*
X167937500Y-35000000D03*
%TD*%
%TO.C,D20*%
X166062500Y21000000D03*
X167937500Y21000000D03*
%TD*%
%TO.C,D4*%
X166062500Y14000000D03*
X167937500Y14000000D03*
%TD*%
D15*
%TO.C,U1*%
X92360000Y31550000D03*
X97440000Y31550000D03*
X105060000Y31550000D03*
X110140000Y31550000D03*
X110140000Y47450000D03*
X105060000Y47450000D03*
X97440000Y47450000D03*
X92360000Y47450000D03*
%TD*%
D16*
%TO.C,R23*%
X97500000Y29412500D03*
X97500000Y27587500D03*
%TD*%
D12*
%TO.C,D22*%
X166062500Y-10000000D03*
X167937500Y-10000000D03*
%TD*%
D11*
%TO.C,R6*%
X162000000Y-5000000D03*
X163825000Y-5000000D03*
%TD*%
D12*
%TO.C,D27*%
X166062500Y7000000D03*
X167937500Y7000000D03*
%TD*%
D10*
%TO.C,R29*%
X115000000Y19087500D03*
X115000000Y20912500D03*
%TD*%
D12*
%TO.C,D5*%
X166062500Y-3000000D03*
X167937500Y-3000000D03*
%TD*%
D11*
%TO.C,R28*%
X162087500Y-10000000D03*
X163912500Y-10000000D03*
%TD*%
%TO.C,R13*%
X162087500Y19000000D03*
X163912500Y19000000D03*
%TD*%
%TO.C,R34*%
X162087500Y11000000D03*
X163912500Y11000000D03*
%TD*%
%TO.C,R1*%
X162087500Y34000000D03*
X163912500Y34000000D03*
%TD*%
D12*
%TO.C,D25*%
X166062500Y11000000D03*
X167937500Y11000000D03*
%TD*%
D11*
%TO.C,R9*%
X162087500Y37000000D03*
X163912500Y37000000D03*
%TD*%
%TO.C,R45*%
X162000000Y-30000000D03*
X163825000Y-30000000D03*
%TD*%
D12*
%TO.C,D9*%
X166125000Y37000000D03*
X168000000Y37000000D03*
%TD*%
%TO.C,D18*%
X166062500Y-15000000D03*
X167937500Y-15000000D03*
%TD*%
%TO.C,D24*%
X166062500Y-8000000D03*
X167937500Y-8000000D03*
%TD*%
D17*
%TO.C,R25*%
X160912500Y-50000000D03*
X159087500Y-50000000D03*
%TD*%
D10*
%TO.C,R24*%
X134000000Y37455000D03*
X134000000Y39280000D03*
%TD*%
D11*
%TO.C,R5*%
X162000000Y-3000000D03*
X163825000Y-3000000D03*
%TD*%
%TO.C,R30*%
X162087500Y9000000D03*
X163912500Y9000000D03*
%TD*%
%TO.C,R11*%
X162087500Y-37000000D03*
X163912500Y-37000000D03*
%TD*%
D18*
%TO.C,U3*%
X101807500Y-32075000D03*
X101807500Y-32725000D03*
X101807500Y-33375000D03*
X101807500Y-34025000D03*
X101807500Y-34675000D03*
X101807500Y-35325000D03*
X101807500Y-35975000D03*
X101807500Y-36625000D03*
X101807500Y-37275000D03*
X101807500Y-37925000D03*
X107532500Y-37925000D03*
X107532500Y-37275000D03*
X107532500Y-36625000D03*
X107532500Y-35975000D03*
X107532500Y-35325000D03*
X107532500Y-34675000D03*
X107532500Y-34025000D03*
X107532500Y-33375000D03*
X107532500Y-32725000D03*
X107532500Y-32075000D03*
%TD*%
D11*
%TO.C,R7*%
X162087500Y-20000000D03*
X163912500Y-20000000D03*
%TD*%
D19*
%TO.C,U4*%
X62805000Y36000000D03*
X60525000Y36000000D03*
D20*
X62050000Y31375000D03*
X59000000Y31375000D03*
X62050000Y28025000D03*
X59000000Y28025000D03*
D19*
X58245000Y36000000D03*
%TD*%
D12*
%TO.C,D3*%
X166062500Y16000000D03*
X167937500Y16000000D03*
%TD*%
D10*
%TO.C,R37*%
X150000000Y6087500D03*
X150000000Y7912500D03*
%TD*%
M02*
