M48
; DRILL file {KiCad 9.0.0} date 2025-03-11T18:36:27-0400
; FORMAT={-:-/ absolute / inch / decimal}
; #@! TF.CreationDate,2025-03-11T18:36:27-04:00
; #@! TF.GenerationSoftware,Kicad,Pcbnew,9.0.0
; #@! TF.FileFunction,MixedPlating,1,2
FMAT,2
INCH
; #@! TA.AperFunction,Plated,PTH,ViaDrill
T1C0.0118
; #@! TA.AperFunction,Plated,PTH,ComponentDrill
T2C0.0236
; #@! TA.AperFunction,Plated,PTH,ComponentDrill
T3C0.0394
; #@! TA.AperFunction,Plated,PTH,ComponentDrill
T4C0.0402
; #@! TA.AperFunction,Plated,PTH,ComponentDrill
T5C0.0512
; #@! TA.AperFunction,Plated,PTH,ComponentDrill
T6C0.1260
%
G90
G05
T1
X1.8504Y1.1024
X1.8504Y0.9449
X1.8504Y0.7874
X1.8504Y0.6299
X1.8504Y0.4724
X1.8504Y0.315
X1.8504Y0.1969
X1.9291Y1.1811
X1.9291Y1.0236
X2.0079Y1.2598
X2.0079Y1.1024
X2.0079Y0.9449
X2.0079Y0.7874
X2.0079Y0.6299
X2.0079Y0.4724
X2.0079Y0.315
X2.0079Y0.1969
X2.0866Y1.1811
X2.0866Y1.0236
X2.1654Y1.2598
X2.1654Y1.1024
X2.1654Y0.9449
X2.1654Y0.7874
X2.1654Y0.6299
X2.1654Y0.4724
X2.1654Y0.315
X2.1654Y0.1969
X2.2441Y1.0236
X2.3228Y1.2352
X2.3228Y0.9449
X2.3228Y0.7874
X2.3228Y0.6299
X2.3228Y0.4724
X2.3228Y0.315
X2.3228Y0.1969
X2.3829Y1.1693
X2.4016Y1.0236
X2.4429Y1.2352
X2.4803Y0.9449
X2.4803Y0.7874
X2.4803Y0.6299
X2.4803Y0.4724
X2.4803Y0.315
X2.4803Y0.1969
X2.5591Y1.1811
X2.5591Y1.0236
X2.6378Y1.2598
X2.6378Y1.1024
X2.6378Y0.9449
X2.6378Y0.7874
X2.6378Y0.6299
X2.6378Y0.4724
X2.6378Y0.315
X2.6378Y0.1969
X2.7165Y1.1811
X2.7165Y1.0236
X2.7953Y1.2598
X2.7953Y1.1024
X2.7953Y0.9449
X2.7953Y0.7874
X2.7953Y0.6299
X2.7953Y0.4724
X2.7953Y0.315
X2.7953Y0.1969
X2.874Y1.1811
X2.874Y1.0236
X3.2283Y-4.124
X3.248Y-5.5118
X3.3366Y-3.9567
X3.3366Y-5.6496
X3.3465Y-4.0157
X3.3957Y-0.689
X3.4055Y-6.1122
X3.4646Y-4.065
X3.4843Y-5.8957
X3.5433Y-1.4272
X3.5728Y-0.5413
X3.5925Y-0.8957
X3.5945Y-3.6909
X3.6122Y-5.7776
X3.624Y-3.6403
X3.6254Y-1.5856
X3.6319Y-1.2598
X3.6516Y-1.378
X3.6516Y-1.8701
X3.6516Y-6.2992
X3.6774Y-0.9467
X3.75Y-4.9311
X3.7598Y-1.0839
X3.7894Y0.9547
X3.815Y-1.1983
X3.8386Y-1.2303
X3.8484Y-2.6673
X3.8484Y-3.6122
X3.8681Y-2.0256
X3.8799Y-1.7618
X3.9055Y-4.1683
X3.9173Y-5.3346
X3.9272Y-2.4973
X3.9469Y1.3484
X3.9764Y-4.7244
X3.9961Y-0.8465
X4.0157Y-1.9094
X4.0256Y-1.2205
X4.0256Y-5.0689
X4.0522Y-0.9739
X4.0551Y-1.4931
X4.0571Y-1.3772
X4.0846Y-4.6161
X4.0945Y-1.3189
X4.124Y-4.498
X4.1535Y-0.8957
X4.1535Y-2.1654
X4.1535Y-3.2874
X4.1535Y-3.4843
X4.1732Y-1.4567
X4.1929Y-1.1516
X4.2091Y-2.7299
X4.2134Y-4.3858
X4.2618Y-3.1102
X4.2756Y-1.0236
X4.2797Y-2.8132
X4.3209Y-1.2598
X4.322Y-1.6583
X4.3386Y-4.2598
X4.3406Y-2.0177
X4.3504Y-4.4094
X4.3602Y-1.2894
X4.3992Y-1.9196
X4.3995Y-2.7096
X4.3996Y0.0787
X4.4051Y-2.7469
X4.4291Y-3.9075
X4.4345Y-2.7581
X4.4685Y-2.5295
X4.4703Y-0.1755
X4.4783Y-2.8839
X4.498Y-3.7106
X4.504Y-1.9882
X4.5472Y-1.9488
X4.5669Y-2.7559
X4.5866Y-1.9193
X4.5866Y-3.75
X4.6063Y-2.7165
X4.626Y0.0787
X4.6358Y0.2461
X4.6949Y-1.3189
X4.7244Y-1.2894
X4.7933Y-2.0571
X4.7933Y-2.8248
X4.8524Y-2.6467
X4.8524Y-2.8642
X4.9114Y-2.6083
X4.9409Y-2.9429
X5.0394Y-0.5413
X5.1083Y-2.5787
X5.128Y-4.252
X5.1673Y-0.8661
X5.2756Y-4.311
X5.3346Y-0.7972
X5.3445Y-4.3701
X5.374Y-3.727
X5.3839Y0.2362
X5.3937Y-0.6496
X5.4626Y-4.5374
X5.5217Y-3.8189
X5.5315Y-0.7087
X5.5511Y0.1754
X5.5906Y-0.4232
X5.5906Y-2.6976
X5.5906Y-3.6713
X5.5906Y-2.7311
X5.6201Y-2.7461
X5.6398Y-2.9232
X5.6674Y-2.1481
X5.685Y-0.3642
X5.685Y-2.0665
X5.6988Y-3.0512
X5.7106Y-0.9146
X5.7274Y-0.2894
X5.7579Y-0.502
X5.7747Y-2.6941
X5.8034Y-0.561
X5.8169Y-0.1378
X5.8268Y-0.2953
X5.8283Y-3.6236
X5.8366Y-3.1693
X5.846Y-2.6941
X5.8465Y-2.372
X5.8524Y-2.4736
X5.8624Y-2.5628
X5.8858Y-0.374
X5.8858Y-3.5221
X5.9082Y-0.2861
X5.9252Y-0.315
X5.9252Y-3.7205
X5.9547Y0.2657
X6.0039Y0.1476
X6.0138Y-0.315
X6.0236Y0.0492
X6.0494Y-0.2522
X6.0679Y-0.0541
X6.1713Y-1.9094
X6.1811Y-2.8051
X6.2008Y-3.376
X6.2106Y-3.5728
X6.2205Y-2.6083
X6.2303Y-2.1161
X6.2402Y-2.8839
X6.2598Y-1.0925
X6.2697Y-0.0098
X6.2795Y1.437
X6.2795Y0.6004
X6.2894Y1.5157
X6.2894Y0.6496
X6.2992Y1.2795
X6.3091Y1.3583
X6.3091Y0.8268
X6.3091Y0.7382
X6.3287Y0.0295
X6.4075Y0.187
X6.4075Y-3.878
X6.5906Y-1.0859
X6.6142Y-0.2657
X6.6614Y-1.1811
T2
X2.1949Y1.6732
X2.1949Y1.6142
X2.5197Y1.6732
X2.5197Y1.6142
T3
X2.7984Y-0.54
X2.7984Y-0.649
X2.7984Y-0.7581
X2.7984Y-0.8671
X2.7984Y-0.9762
X2.7984Y-1.0852
X2.7984Y-1.1943
X2.7984Y-1.3033
X2.7984Y-1.4124
X2.7984Y-1.5215
X2.7984Y-1.6305
X2.7984Y-1.7396
X2.7984Y-3.2959
X2.7984Y-3.4049
X2.7984Y-3.514
X2.7984Y-3.623
X2.7984Y-3.7321
X2.7984Y-3.8411
X2.7984Y-3.9502
X2.7984Y-4.0593
X2.7984Y-4.1683
X2.7984Y-4.2774
X2.7984Y-4.3864
X2.7984Y-4.4955
X2.9102Y-0.4854
X2.9102Y-0.5945
X2.9102Y-0.7035
X2.9102Y-0.8126
X2.9102Y-0.9217
X2.9102Y-1.0307
X2.9102Y-1.1398
X2.9102Y-1.2488
X2.9102Y-1.3579
X2.9102Y-1.4669
X2.9102Y-1.576
X2.9102Y-1.685
X2.9102Y-1.7941
X2.9102Y-3.2413
X2.9102Y-3.3504
X2.9102Y-3.4594
X2.9102Y-3.5685
X2.9102Y-3.6776
X2.9102Y-3.7866
X2.9102Y-3.8957
X2.9102Y-4.0047
X2.9102Y-4.1138
X2.9102Y-4.2228
X2.9102Y-4.3319
X2.9102Y-4.4409
X2.9102Y-4.55
X3.7402Y-1.1417
X3.7402Y-1.2992
X3.7402Y-1.4567
X3.7402Y-1.6142
X4.5669Y-1.378
X4.5669Y-1.5354
X4.5669Y-1.6929
X4.5669Y-1.8504
X5.8268Y-3.2677
X5.8268Y-3.7795
X5.9843Y-0.9843
X5.9843Y-1.1673
X5.9843Y-1.3504
X5.9843Y-1.5354
X6.0Y-1.9728
X6.0Y-2.0728
X6.0Y-2.1728
X6.0Y-2.2728
X6.0Y-2.3728
X6.0Y-2.4728
X6.0Y-2.5728
X6.0Y-2.6728
X6.0Y-2.7728
X6.0Y-2.8728
X6.0Y-2.9728
X6.0Y-3.0728
X6.0Y-3.1728
X6.0Y-3.2728
X6.0Y-3.3728
X6.0Y-3.4728
X6.0Y-3.5728
X6.0Y-3.6728
X6.0Y-3.7728
X6.0Y-3.8728
X6.1Y-1.9728
X6.1Y-2.0728
X6.1Y-2.1728
X6.1Y-2.2728
X6.1Y-2.3728
X6.1Y-2.4728
X6.1Y-2.5728
X6.1Y-2.6728
X6.1Y-2.7728
X6.1Y-2.8728
X6.1Y-2.9728
X6.1Y-3.0728
X6.1Y-3.1728
X6.1Y-3.2728
X6.1Y-3.3728
X6.1Y-3.4728
X6.1Y-3.5728
X6.1Y-3.6728
X6.1Y-3.7728
X6.1Y-3.8728
X6.2992Y-2.2047
X6.2992Y-2.3622
X6.2992Y-2.5197
X6.2992Y-3.1102
X6.2992Y-3.2677
X6.4567Y-4.4488
X6.4567Y-4.6063
X6.4567Y-4.7638
X6.4567Y-4.9606
X6.4567Y-5.1142
X6.4567Y-5.2717
X6.4567Y-5.4724
X6.4567Y-5.6299
X6.4567Y-5.7874
X6.4567Y-5.9843
X6.4567Y-6.1417
X6.4567Y-6.2992
T4
X4.326Y0.4921
X4.3276Y0.9843
X4.3276Y0.0
X4.426Y0.4921
X4.4276Y0.9843
X4.4276Y0.0
X4.526Y0.4921
X4.5276Y0.9843
X4.5276Y0.0
X4.626Y0.4921
X4.6276Y0.9843
X4.6276Y0.0
X5.115Y0.0
X5.1165Y0.9843
X5.1181Y0.4921
X5.215Y0.0
X5.2165Y0.9843
X5.2181Y0.4921
X5.315Y0.0
X5.3165Y0.9843
X5.3181Y0.4921
X5.415Y0.0
X5.4165Y0.9843
X5.4181Y0.4921
X5.748Y0.9843
X5.748Y0.4921
X5.848Y0.9843
X5.848Y0.4921
X5.948Y0.9843
X5.948Y0.4921
T5
X2.9331Y1.6286
X3.1299Y1.6286
X4.626Y1.6286
X4.8228Y1.6286
X5.4528Y1.6286
X5.6496Y1.6286
T6
X2.8543Y-0.2126
X2.8543Y-2.0669
X2.8543Y-2.9685
X2.8543Y-4.8228
M30
